<mxfile host="app.diagrams.net" modified="2023-10-25T03:18:09.201Z" agent="Mozilla/5.0 (Windows NT 10.0; Win64; x64) AppleWebKit/537.36 (KHTML, like Gecko) Chrome/118.0.0.0 Safari/537.36 Edg/118.0.2088.61" etag="l7-5WvHtCEUMv11tjdgn" version="22.0.6" type="github" pages="2">
  <diagram name="第 1 页" id="g-Ihgk1x26Gj16Tne6fB">
    <mxGraphModel dx="719" dy="374" grid="1" gridSize="10" guides="1" tooltips="1" connect="1" arrows="1" fold="1" page="1" pageScale="1" pageWidth="827" pageHeight="1169" background="none" math="0" shadow="0">
      <root>
        <mxCell id="0" />
        <mxCell id="1" parent="0" />
        <mxCell id="XqpdoOLpWVtxGFC_QqbE-35" value="" style="rounded=1;whiteSpace=wrap;html=1;fillColor=none;strokeColor=#FFCC99;dashed=1;" vertex="1" parent="1">
          <mxGeometry x="375" y="350" width="265" height="320" as="geometry" />
        </mxCell>
        <mxCell id="XqpdoOLpWVtxGFC_QqbE-34" value="" style="rounded=1;whiteSpace=wrap;html=1;fillColor=none;strokeColor=#7EA6E0;dashed=1;" vertex="1" parent="1">
          <mxGeometry x="150" y="350" width="260" height="320" as="geometry" />
        </mxCell>
        <mxCell id="XqpdoOLpWVtxGFC_QqbE-1" value="X" style="shape=cube;whiteSpace=wrap;html=1;boundedLbl=1;backgroundOutline=1;darkOpacity=0.05;darkOpacity2=0.1;fillColor=#dae8fc;strokeColor=#6c8ebf;" vertex="1" parent="1">
          <mxGeometry x="165" y="380" width="65" height="260" as="geometry" />
        </mxCell>
        <mxCell id="XqpdoOLpWVtxGFC_QqbE-2" value="" style="shape=cube;whiteSpace=wrap;html=1;boundedLbl=1;backgroundOutline=1;darkOpacity=0.05;darkOpacity2=0.1;fillColor=#dae8fc;strokeColor=#6c8ebf;" vertex="1" parent="1">
          <mxGeometry x="280" y="460" width="50" height="110" as="geometry" />
        </mxCell>
        <mxCell id="XqpdoOLpWVtxGFC_QqbE-3" value="X&#39;" style="shape=cube;whiteSpace=wrap;html=1;boundedLbl=1;backgroundOutline=1;darkOpacity=0.05;darkOpacity2=0.1;fillColor=#ffe6cc;strokeColor=#d79b00;" vertex="1" parent="1">
          <mxGeometry x="560" y="380" width="60" height="260" as="geometry" />
        </mxCell>
        <mxCell id="XqpdoOLpWVtxGFC_QqbE-4" value="" style="shape=cube;whiteSpace=wrap;html=1;boundedLbl=1;backgroundOutline=1;darkOpacity=0.05;darkOpacity2=0.1;fillColor=#ffe6cc;strokeColor=#d79b00;" vertex="1" parent="1">
          <mxGeometry x="460" y="460" width="50" height="110" as="geometry" />
        </mxCell>
        <mxCell id="XqpdoOLpWVtxGFC_QqbE-5" value="编码器" style="text;html=1;align=center;verticalAlign=middle;resizable=0;points=[];autosize=1;strokeColor=none;fillColor=none;" vertex="1" parent="1">
          <mxGeometry x="250" y="640" width="60" height="30" as="geometry" />
        </mxCell>
        <mxCell id="XqpdoOLpWVtxGFC_QqbE-6" value="解码器" style="text;html=1;align=center;verticalAlign=middle;resizable=0;points=[];autosize=1;strokeColor=none;fillColor=none;" vertex="1" parent="1">
          <mxGeometry x="477.5" y="640" width="60" height="30" as="geometry" />
        </mxCell>
        <mxCell id="XqpdoOLpWVtxGFC_QqbE-7" value="Z" style="shape=cube;whiteSpace=wrap;html=1;boundedLbl=1;backgroundOutline=1;darkOpacity=0.05;darkOpacity2=0.1;fillColor=#e1d5e7;strokeColor=#9673a6;size=10;" vertex="1" parent="1">
          <mxGeometry x="380" y="490" width="26" height="60" as="geometry" />
        </mxCell>
        <mxCell id="XqpdoOLpWVtxGFC_QqbE-28" value="" style="html=1;shadow=0;dashed=0;align=center;verticalAlign=middle;shape=mxgraph.arrows2.arrow;dy=0.58;dx=17.84;notch=0;" vertex="1" parent="1">
          <mxGeometry x="240" y="515" width="35" height="10" as="geometry" />
        </mxCell>
        <mxCell id="XqpdoOLpWVtxGFC_QqbE-29" value="" style="html=1;shadow=0;dashed=0;align=center;verticalAlign=middle;shape=mxgraph.arrows2.arrow;dy=0.58;dx=17.84;notch=0;" vertex="1" parent="1">
          <mxGeometry x="340" y="515" width="35" height="10" as="geometry" />
        </mxCell>
        <mxCell id="XqpdoOLpWVtxGFC_QqbE-30" value="" style="html=1;shadow=0;dashed=0;align=center;verticalAlign=middle;shape=mxgraph.arrows2.arrow;dy=0.58;dx=17.84;notch=0;" vertex="1" parent="1">
          <mxGeometry x="413" y="515" width="35" height="10" as="geometry" />
        </mxCell>
        <mxCell id="XqpdoOLpWVtxGFC_QqbE-31" value="" style="html=1;shadow=0;dashed=0;align=center;verticalAlign=middle;shape=mxgraph.arrows2.arrow;dy=0.58;dx=17.84;notch=0;" vertex="1" parent="1">
          <mxGeometry x="520" y="515" width="35" height="10" as="geometry" />
        </mxCell>
        <mxCell id="MV9WVb7UVguFswtyK6OV-1" value="输入" style="text;html=1;align=center;verticalAlign=middle;resizable=0;points=[];autosize=1;strokeColor=none;fillColor=none;" vertex="1" parent="1">
          <mxGeometry x="165" y="350" width="50" height="30" as="geometry" />
        </mxCell>
        <mxCell id="MV9WVb7UVguFswtyK6OV-2" value="输出" style="text;html=1;align=center;verticalAlign=middle;resizable=0;points=[];autosize=1;strokeColor=none;fillColor=none;" vertex="1" parent="1">
          <mxGeometry x="555" y="350" width="50" height="30" as="geometry" />
        </mxCell>
        <mxCell id="MV9WVb7UVguFswtyK6OV-3" value="特征" style="text;html=1;align=center;verticalAlign=middle;resizable=0;points=[];autosize=1;strokeColor=none;fillColor=none;" vertex="1" parent="1">
          <mxGeometry x="368" y="460" width="50" height="30" as="geometry" />
        </mxCell>
      </root>
    </mxGraphModel>
  </diagram>
  <diagram id="J745odu3fw1y5tyd4e-F" name="第 2 页">
    <mxGraphModel dx="3432" dy="1358" grid="1" gridSize="10" guides="1" tooltips="1" connect="1" arrows="1" fold="1" page="1" pageScale="1" pageWidth="827" pageHeight="1169" math="0" shadow="0">
      <root>
        <mxCell id="0" />
        <mxCell id="1" parent="0" />
        <mxCell id="URKf0z_btjTz6VOf-sqR-2" value="" style="shape=image;verticalLabelPosition=bottom;labelBackgroundColor=default;verticalAlign=top;aspect=fixed;imageAspect=0;image=data:image/png,iVBORw0KGgoAAAANSUhEUgAAAQwAAADzCAYAAABzPyjrAAAAAXNSR0IArs4c6QAAAARnQU1BAACxjwv8YQUAAAAJcEhZcwAADsMAAA7DAcdvqGQAAD1ZSURBVHhe7Z0HWBRHG8f/HIgUAcEIGsGGHaXYe401sXdj7yb2ronBxN6jfpqoYNdYMIoxdhEVxYY0BZUiRQEx0jt3zLezLEo58IA74I75Pc/o7uxysHOz/3nfmXdm1AgHGAwGQwZEwv8MBoPxRZiFoeKEh4djz549wpniMDIywsKFC4Uz5eXx48c4c+aMcKY4rKysMG7cOOFMeVAqwTh79ixCQ0OFM8UxcOBAmJubC2fKjYeHB2xsbIQzxUHLy9/fXzhTXg4ePIgpU6YIZ4pj+PDhJSJM8kapBKN79+64ffu2cKY4HB0dMWDAAOFMuckSjKFDh2L16tVCrnyhrWXt2rUREBAg5CgvWYKxbds2hdSBtLQ0WFhYMMEoCbIE486dO0KOfKGV5ciRIyopGLa2tgoTjKZNmyIlJUWlLAxF1QEqGBUrVlRawQAVDGWhW7duRE9PTziTP/b29lQ8CVdZhBzlx93dnX8mTjCEHPnDtZiEc0mEM+VG0XUgNTWV/3xOMIQc5YKNkjAYMpIQ+ACOxw/i4KlbeBUnZOYgCWE+T/HkyZPM9NQbwVLvU16YYDAQ8/oOzh3ZD7tTzvCLFzJzEI2XTg44evAwTt97g1Qht/wQjaf7JqJTq04YNG4Kpozug2/G74FXsnA5i/R3uH/8V0zq2RatW7dG6zYd8cORV0gXLheFhIQEcFaJcFb6qIhgxCPw/nkc2b8PR/71wgeJkJ2b1DC8eOQKV9eH8HgTI2SWZ2Lg9ud4dGnbHcMmzsC073vj2znHEZC9hsd74uCkbmjbczgmTJmBNRcDkF/xqibp8D++AGPXvEFHWztsGdsEWiIx3l7ZDTunXHWoQn0MX38UvwwxznyxNBuihY0ZKvAXC4+rqys/XF23bl0cP35cyC1dlF4wJKE3sXlkezTvPAQTZ8zExAE9MW6Xu9RWMPnpPkzq2h7tO/bDOqeEclbxc5OON6cXY/yv/mi7yh47Z7SCPtIQcNYOZ58LpScJwt/LJmDuUX9om1aDroYBbKwtoZN5tXyQHogHtyPQfdsR/D53EuatnI4uutxrk/YGN50ec05IXkgGrVkiGHQehRFtil5akZGRSE9PR1hYGB+z0aFDB7i5uQlXSwelFozUgHNYOGIs7BL7YcPhnZhspQVkRMLlshP889iBEkR4e+JVGneo1QzNbapCPfNC+SQ9BI/uvEWbDYexa8FE/PjTTPQ2FCEj5Rlc7odycpIM7/0LMf9QFLqs/RfuL67iyJZ1GN+xivAB5YQKDTHe/ir2jqzN15cKdTuiszVXzzhxDXn+HEG561myD3x84pGhUQMDxo9A46KaFxw0Hmj//v346quv+PMHDx7wrs7UqVN5MSkNlFgw0vHu6U34NVoHh782Yda4SejTXI9/IJKRAUlG5l2fSYSnhzuSuHxNMxs0b1BRyC+nVDDHqL1XcXBiA9CSUK/WAR1baXOCm4znPj6Ievg7FtreQc0FdrBf2gXVKllh6Pxp6FmrXMssULEhrKy/hgZ3mOr7Gq9TMrOzSH3lgrsv0qBlMx7TBpoWu1GaNm0a/Pz8MG/ePGhoaCCDq9v29vZo0KABduzYwVsgJYkSC0YF1B35By4fmgJLPe40/R1nuiUhg3sk3a9roEZuPeCU38MjEmLuul7zFrCqJOQzMqlQE81bNoYWV0If3E9jyfwteNNjE/at6oVq5VwjcqKNZs2aQYd7c8Qf/eAflN35TYbHRUc8TquOgTMno72c6ljlypXx+++/w9PTE9988w2fFxsby4fi06C569ev83klgcICt7y8vBAfL7XLvcjMmTOHDw6Ki5MyVvXxNCY1HYPDEVrovtkVl5dY8i1nFpLg/RhmOQsX4rTRY4srrixulqczKitoZ+PGjejYsaOQ+2WSk5Ohrc21zmUQ2jpNmjRJpsCtmL+no9nIA3grFkG/1UKcctyIvtW/rBY0cCs6Olo5A5FycenSJf77LyhwK/mBLbr0+A1PxDUw7bQP9g/Rz7wQ9S/mdhyCg4YrcP3aaqmCkRW41a1bN6xZs0bILRwXLlzA1q1bhbNMqlatyneSKnxKAx+NoQA4X4sPUJF3yi9wK/HGYtJEk7tH04osv50o5H4mznEWqaNBr1uQxTfyXqdkBe2oYpIlcCvt9S7ST5e7X2RARhwKF3K/DA3ckvY7lTkVGLgVdZpM+lrE3adDum7yICl8Zhp5uXcgqarZgEx3eEfEfF5esgK3FJE4ISIrVqwgCQkJwm+TP0rd6fmZVLx68hhBaYBG9bZoY527ZzoZ3m5uCBdzPljl5rCxKlf9/DKTGp+CdA2uSmSkIjAwgCs1hlQqWaCpBbUo0+Af8Ib7l+PDdezZcw3q3y7AwgFfl0qHOu3PoJYeDdNXFApzSVxcXPg/Xp789NNPCAoKyuuSSIKxf7gVZp2PR+URdvA8OQmm2b+x1GfY0KsTVt5Ngm7v3/H0n3loJKX3Osslob+nTZs2Qm7BZDdb6THtwS5LBAYGYv78+V90SSQR17Bi0Bgc9CeI/hiLSoP2wtNhBmrLUPOpS/Lx40e+R7+sQP36//3vf/zxvn37UL16df74S9y4cQO7d+/+wlySJFydb4P+O1+jYq/teHJpGmI29kOf3yvip2uOWNoy/wYpyyWhQ6TLli0TcguHs7Mztm/fLpx9xt3dHdbW1sKZguDtDCUh37kkUefINDMNTvh0SPctXoKJ+Jmoa4uIJXVXoEWsVziTJCE/N4WdR3DixAn+/uwpLCxMuFo2kGkuSdILYjfanBi2WU4cdg8nBiIQDbPp5O9o4foXKItzSQ4cOPDpOwkICBByv4xsdUBMgvYNIvq0nOrPIY4Pt5HeVfVJe9t7JFa4Iz+KM5eEayzJsGHDPj0XTWZmZuTUqVPCHYpHJVyS5BfP8OwD529oVEeTxnVydHYizhV7NxzEc2o3igxgbdUM8uieTExMxNKlS4WzzxS11Sg1JBG4vmY6lt6shcXbV6BfiyZopAmI3z/EI/essCQJYqJilCrQjavbwhFnRqupCUfyQh3GjRrDnJZT6D1sXbgJrnVnY928jhC6P+UK7VSn1mHjxo3h4ODA52lpaWHVqlV4+fIlRo4cyeeVBCohGHH+/vCngqBZDdWMs/kaknBcXbMIJ/W6ogPXHECrERo21BUuxiAquuhj2Bs2bMC7d++Es8/QEN6HDx8KZ2WUqJvYOmsZDrq+wOV1kzF1Rwg6227H/Pb60LawgbWJBmc7v8atW8+QwN2e5L0Pk9uPwHY35enVUKxgANoNG6ERHVtN8cD953Uxe8MidDUULsoRKhCNGjXCr7/+ygsHZciQIfD19cVvv/0GHZ2S7Y9TAcGQIDklBRk0UCvtPcIjhEotCcOtjVMxz6UD1k+sh5gU7gZ1AxgYcC+DJBL3No1DhxHb8bQI7wDtF8g9rJUFrah0+Dd7hS1rJLlfx5GDmzGlfVN8++tdVJmyE7/PtMoM+dZvgy5dTKCBFHgcWIofl8zD96N/RXDv2RhtXTaHjqWhaMGAfn00qMeZGCJDdFy4BUu6GQkX5MfVq1f5dTNCQkL4c9pXdOvWLZw7d45fsKg0UAHBUIdJ4yYwp9G64kAcWzkRs5cuwMTeXfH932awPfQbehqpZz5o8kOcXLsKi77vh2H/S8PIJeNgU4R3YNGiRZ9mEGY3B0eMGMH///TpUxw6dIg/LnukI9jLE284i0ykYYw20//A0Y2D8TmAsxq+mzUfPU01kRHpiuN7/0F8n904sXFAzo7kMo6iBSPp5WO4vc2ASa+VnEvSEZWFfHlCO0fp325oaIhdu3bxiyHRRaRKFa5glYZ8Oz3FQeTC0i6khiYdGwcR6ZqTnnP2kjuhaZnXEx+T7f1MiaYIfIxBwz4LyRG3qMxr2ZClw+vGjRv8PTRxAkH27Nnz6dzb25uYmJjwx/T/2NgvdYEpHmmdnolhPuTRPRfy9PX7PB3EWaRE+BDXe67EOyQ235iCLMpip+fevXs/fS9cCy3kfhlZ6oA48ib5qaMh0aw7itj55FeC0ilsp2d4eDiJiYkRzkofFbAwONRrYeCmW3j+yg2uDz0RGOqL67tmobOp0J+h0woLHJ7gmcs9PPZ5iWdXtmF888I7nGKxmI/pp1DfccuWLfxxFvr6+nzfBuX9+/e831kW0aneGK07dkCL+sY5O4izUdGkMdp2bIumZvqlElNQXLi6LRzJ2cJI8MbBeTOxxbMufti5DRMb51eC8qFatWqcG20gnJU+qiEYPOqoXNsabdtYopahlCAL7WqwaNcRrRpWK/L0bLpcv4+PD39MR0Nq1qzJH2dn4sSJ/IxCCh3Pp73YjJJHXoKR4PIHFiyx5/u6JJyLtmfmaCw4l47vNh7Amu9KJ0CrNFG6RYBp/4DUuSRyoKAFYGlgUr169cCZh6hVqxbfS03nj3CmL3788Uf+nuDgYF5EHj16hHbt2vGVtm/fvrh8+TJ/vTTIWgT466+/VtgiwNOnT+cXeSlLq4bToC3a+Uyho1n0+WUhqw7QSV4DBvRF0JVd2HUtGl83rgWN96/xJloXFt+Nw5hu5qhUhOaWBm4tXryYrRpeEmStGp41Fi1vaGWhL7c0wbh79y66dOnCH9P9UYYNG8YfSxMMCrU06Ark1E2hIqOQnnoZKK/7klDrbu7cufwxXYBG1kjPLMFQNEwwSoAswVA00gSD9l+sX7+eX8zkhx9+EHLzFwwaFr9582a0bNmS3xOktKDToGmYvqKhfTp0BmZZgY4qZPU30d3faF+ALFBxodYjjyQKvlxD8fy/DOh8VQdNW3Durr58nBBjY2N+mryyoVSCQecH0M5ERdO1a1eYmZkJZwWTn2AwSpedO3fyc2goERERMDEx4Y8ZxUOpBKMswgSjbEIXnFmwYAF/TBsZ2qIzio8KjZIwGJ/J3g6WVv+RKsIEg6GSMMFQDEwwGCoJEwzFwASDoZIwwVAMTDAYKgkTDMXABIOhkjDBUAxMMBgqCRMMxcAEg6GSMMFQDEwwGCoJEwzFwASDoZIwwVAMTDAYKgkTDMXABIOhkjDBUAxMMBgqCRMMxcAEg6GSMMFQDEwwGCoJEwzFwASDoZIwwVAMTDAYKgkTDMXABIOhkjDBUAxMMBgqCRMMxcAEg6GSZBcMhvxggsFQSZiFoRiYYDBUHiYY8oNtM1BMyvo2A8nJySWyI5mmpiYaNmwonJU+K1eu/LQxNqvicoQKBqPo7Nmzh9ZGPnGCIeSWHdzd3T/9fYpM5ubmwm8sGyxfvvzT38aQH8zCKCZl3cLIvrfqzz//zP8vb9auXVvmNmPmBAObNm3i3ZGMjAwhl1FseNlgFBllsTBsbW2FnEIifk/iXO+Rjy7uJDFeyMuFhYVFmbMwli5dyj+3SCQSchjygHV6MgpAgpQLq+DdpRO8es1HuH+qkF/24eo2/z/r8JQvTDAY+RNzF8EbjyM9jTvOiIU4TnlMeyYYioEJBiMfkhFrtwGRgV+jQg0NQBwLSZxEuFb2YYKhGJhgMKSS4f8XgnY+QsUfVuCr2ppcRgzE8WLhatmHCYZiYILByIskApE7tiKm0veoOcMG6pyBgQwxJLExfO+uMsAEQzEwwWDkIf3BHoQci4XBgvkwNqkINU360kkgiY+DsvRiMMFQDEwwGDlJ9cLb9fuQYvMDao1tAJFIG+patJpkcBZGXOY9SgATDMXABIORDQmSTm9G2F0TfLVsOgx1uCz1SlDXpS+dGOK4OOaSlHNYpGcxyR7pOWPGDOjr6/PHZYX379/j6NGjsLW1xerVq4XcfIj8Fz7dRyDKcg9sjk2ErjrNjEf4lHp4ffA/iCacRNvDI1GBv/kzTZs2xbt37zBt2jQhp/S5desWnj17Bl1dXSQkJAi5jGJDBYNRdC5evEjat29PRbdMpy9HesaRj6s7kDuGPUiAW5KQR4kn7+fUJ87cZ9wZvJ8kiYXsbNBIT2m/syykSpUqCX8lQx4wl6SY9O/fH4cPH+ZN37KYZEXy4jCC9rpBY8gEVNF7iwQ/PyGFco5Kxcyb4mKRXkCvp7TfX1qJYmpqijVr1vDHDPnAXBIVJ2vyWYEuiSQY76Z0h/+RQL5Zzg+1lqvQ7O5vMNIWMgSoS5KSklIi0+gZpQuzMBhIu7kLoaf/g84aF7SPjUWHHCkKzbf1zqwo3LlYeYI9GQqACUZ5J+kRQtbbIdV8AmrO6ABNfX1UyJEMoWmgl3lvTBzEzB4t1zDBKNekI/7IRkQ8UEOlaTNQtaqQnQt1rcw+DJLCWRixzMQozzDBKMdkBJ7Cm62XIK7YBoY9G+RbGTLS6HRVDsl7pIUpz3wShvxhglFeiXNH6DJbRAdyAkASkZGQLlzIBScS0Y+9MjtDU54j5u4rMBuj/MIEoxxCQs/Cp1sfBP39JlMIklzxbsQgBNxL4q9/Ivkhgsb0gZ/dq8z7MuKQ+NtweP/hyUSjnMKGVVUcmYZViwkbVi0/MAuDwWDIDBOMckJcXJxCEzNUywfMJVFxsm8zoEjMzc2ZS1IOYIKh4tC9UlatWiWcKQ5jY2Ns3bpVOGOoKkwwGAyGzLA+DAaDITNMMBgMhswwwWAwGDLDBIPBYMgMEwwGgyEzTDAYDIbMMMFgMBgywwSDwWDIDAvcUiB0BueHDx9ypNjYWCQlJSE5ORmJiYn8cVpaGtLT0yGR5J00rq6ujgoVKkBHRweGhoaoUqUKn6pWrYqGDRvyK2MzGCUFEww5QMOvX7x4AR8fH/j6+uLVq1fw8/NDZGSkcIfioOJhbW2NFi1aoHnz5mjVqhXq1q0rXGUw5AsTjEISEREBFxcXPHz4EE+ePIG7uzvi4+OFq2UDOhGsb9++6NevH7p16wYtLS3hCoNRPJhgfAHqRtBt927fvg1nZ2e8fv1auCI7lStX5l0ImugxdS+yEt3KT1NTk3c7RKK8XUoZGRm8u0K3+4uKikJ0dDSf3r59i9DQUOGu/NHT08OQIUMwffp0tG/fXshlMIoGEwwpeHt7w9HREf/88w+ePn3Kv7QFQXfaqlmzJiwsLNC4cWM+1a9fn2/p6SxOKgaKICYmhp++7ubmxu8jStPLly+Fq3lp06YNP3P122+/FXIYjMLBBEOAuhZnzpyBg4PDF9d1oOLQoUMHtG7dmk/NmjXjW/KyQHh4OK5evYrLly/j+vXr/OI2uenYsSP+/PNPXuAYjMJQrgWDdkweO3YMp06d4o/zw8zMDD169ED37t3RpUsXXjCUATpKc/HiRfzxxx+8O5Ud6gbRfUeXLl0q5DAYMkAFozyRmJhIjhw5Qjp37kyFUmriXAzCme9k/fr1xMvLS/hJ5ebhw4ekT58+eZ51woQJJDU1VbiLwSiYciMYnp6eZPr06YRzHfK8NDRRkeDcDLJz507y9u1b4adUj/Pnz5NatWrlePbBgwcTiUQi3MFg5I9KC0ZycjLhXA7SqVOnHC9I9mRpaUm2bdtGQkNDhZ9SfaKiovJYWHPmzBGuMhj5o5KCERISQpYtW0aqVKmS46XISpUrVyYzZswgjx8/Fn6i/JGSkkKGDBmSo1xOnjwpXGUwpKNSnZ73798H51KAM7shFufdA5SOaMyePRvDhw9nwUwcqampfGcuLTcKHemhQ7P16tXjzxmM3Ci9YNCgprNnz2LHjh18zERuKlWqhFGjRoGzKNCyZUshl5EFDUyjw8Lv37/nz/v06YMrV67wxwxGHqhgKCPU7Vi5ciUxMTHJYVZnpbp16xJOREhsbKzwE4z8OHXqVI6y4ywO4QqjNOGsZP67KEsd0konGI8ePSIjR44kGhoaOSp5VuJMbHLx4kXW619IunXr9qkM+/btK+QySpObN2/y3wcd1aJ9ch4eHiQjI0O4WjoohWDQl9/BwYG0a9fuU6XOnrS1tcnkyZNVJmaiNMiqnDSJRCLy5s0b4QqjtJgyZUqOek5T48aNyZo1a4i/v79wV8lSpgWDuhM0LoK6F7kLjqYst4MOEzKKDx1izirbVatWCbmM0oA2kjVq1MhR33OnVq1ake3bt5N3794JP6V4yqRg+Pj4kNmzZ+cbZEVjCGgAEnM75MvmzZs/lXHDhg2FXEZpkZCQwA919+/fn1SoUCHHO5A90aBD6lLu37+ffPz4UfhpxVBmBCMmJoZ/4PxCtmmfxejRo8nTp0+Fn2DIm+Dg4Bxl/vz5c+EKo7ShQkDfDyoMVCCyf0/ZExWW7777jhcaKjjyplQFgz7Q33//TYYNG0YqVqwotQCMjIzI0qVL+crMUDxNmzb9VPYbN24UchllCeqCUFecuiTZ35XcSUdHh4waNYo4OjrKbb5QiQuGn58f2bVrF98Tr6WlJfVBabKxsSF2dnYkKSlJ+ElGSbBkyZJP30HXrl2FXEZZhb5PtBO0SZMmOd6f3MnQ0JBMnTqV3Lp1ix+uLSoKD9yiAUFOTk58unnzJoKCgoQreaGLzXBuB8aNG8evUckoeehaGnR5PwpdEYwuWsy5g/w5o+xCX2O68BPnivDLNdB1ZvOjevXq4Kx6cO4/hg4dyi8AJStyFQy6MhXn98LV1fVT+tKSdnQlbLr25JgxY9CrVy9WOUsZupI5XUYwK7SeruZFFxdmKA/0labv3qFDh3Du3Dl+Scf8oCu00dXnZUUmwaDh15TsS83RZfLfvHnDCwStVI8fP+ZDs+nak1/C0tKSD0GmLRld/YmJRNnCysoKXl5e/DHnFmLKlCn8MaPsQV9farXTVetpogJAV62nDfXHjx+FuzKh86fookrZ6d+/P7/IksxQwSgIFxcX3v+ht9JZnvXr1yecSVNgT23uVLNmTTJp0iRy/PhxEhERIXwyo6ySPWCITXsvW/j6+hJ7e3t+tnXbtm1JpUqVcrxrBaVGjRrlyatduzYJDw8XPv3LfFEwaEdJ7l9SUKLDOi1btuQrGh3aYRGDysfevXs/fZ+cBSjkMkqDuLg48tdff/Ero5mamuZ4176UaMSusbExqVOnjlRhoVMsCjvX6osuCXU16BRoaa4G3ZWLToWmHZQ00VWpqb+rra0t3MFQRuh+K3QpAArdBoEuJCxtCwSGYqB9gTdu3ODdwUuXLuVxI3JDvxtOFPhFnZs0acInetygQQNs376dX7s1+3IP+vr62LNnD8aOHSvkyI7MfRh0F6///vuPT7TPge6xQZfRr1ixonAXQ1Wg62TQSkW3cKTQ3vemTZvyxwzFQcudisTWrVvzHU2k7x4VAyroWbvd0e8mdyNNR0moINBNt7LTrl07nDhxgheYIkEFg8HIDVchP5muf/zxh5DLUAR0igPtl8jP5aD9DAsXLiSXL18m8fHxwk/lD12uwMDAIMdncN4APz+Ia/yFu4oGEwyGVObNm/epsn3//fdCLkPe0GUiaZBi9pebJhqlSQcKCrM2CRUT2teR+7Po9Ph79+4JdxUPJhgMqZw9e/ZThaOjYgz5Qlv6X375Jc+6LtQyoPnR0dHCnbJB14kxNzfP8Vk00Y5NOk9LXjDBYEglMjKS72XPqnhsIpr8CAsL40efsr/YVDjmzp1b6Nmm1J1Zt25dHuGhoyKHDx8W7pIfTDAY+ULH+bMq4IYNG4RcRnFwdnbOs6yktbU18fb2Fu6QHbpMZZcuXXJ8Fk20/0lRC+wwwWDky5YtWz5VwhYtWgi5jKJCyzO3JbBo0aIizSSlLmNWQGVWohYhXee2uB2bBcEEg5EvtAXLHtFLFzZiFB66odaYMWNyvNz6+vrk3Llzwh2yQ5eEoMtRZv8smugIC7VeFA0TDEaB0CnuWZWShowzCgcNu84+RE2ThYUFefXqlXCH7Dx58oSfmpH9s2ii68mU1DKVTDAYBUJXYM+qmHSRI1Xed1beUIss9z629OUuykpYFy5cyLNMn66uLh+/UZIwwWAUCF3Wnq5UnVVJ6dwixpe5ceNGjj4G6trZ2toWeZsAOnqSfVFg2qdUFCuluDDBYHyR7DEZNGKwKD365Qm60j0tp6wy09TUJCdOnBCuFh0nJye+05TuUZKWlibkliwKX3GLoRq0bdsWjx494o9btWrFL9BCJx8yPkMXH5o5cyaOHz8u5ABGRkb8IjZdu3YVcooHXYOmyPNA5ACbgsiQiV27dn0SCDqbddOmTfwxIxM6QY/u3ZtdLOisUSqy8hILSmmKBYUJBkMm6OzIhQsXCmfAL7/8wq/TWt6hBjrngvDlQ1e7ymLQoEG8FaZqO+Ezl4QhM3RdBvpi0NaU8tVXX/HrpZR2q1dahISEYPr06bh27ZqQk7mM5ebNmzF//nwhR7VggsEoFAEBAXwfRtbCsrVr18bdu3dhZmbGn5cHJBIJ76KtWrWK77fIggrnX3/9xS8kpaowl4RRKOiiSXQpew1h4Wa60Ev37t0RGBjIn6s61M2gfRXUPcsuFnRrDHd3d5UWCx5qYTAYhYWu15p9NivnnhDO0hCuqh50wyAadJX1vFmJBmbRhW3KC0wwGEXmyJEjOeINaCTi6tWrSy1GQBHQbQlnzpyZZ9IYPaerYBUlalOZYYLBKBZXr17Nsxxcs2bN+O0plJnXr1+T6dOnS93zt3fv3uV2Ih4TDEaxoS9P9vDxrDR06FDi6ekp3FX2oYvRXLlyhfTr10/qvjuWlpa8QJZnmGAw5EJKSgofspx7ghRNtEWmk9joC1kWCQgI4Dc0rlOnTp6/nSa60TFdWLes/v0lCRtWZcgVGry0YMECflPn3NSsWROjRo3ik7W1daE2AZY3dDvB8+fP48KFC59C3nNDR3/os3z77bel+reWJZhgMBTCrVu38PPPP+Phw4dCTk5MTEz4DbI6derE76/LuTQKnZtCh0AfPHjAbxDk6OiY7ybhdMd6ujH43Llz0axZMyGXkQUTDIZCoZGgdJctBwcHJCUlCbl5oRvx0A156CY9jRo1Qv369VG9enU+0YjSSpUqCXd+GbrpFrV06ObEz5494+MjPD09c+z+lR1qPVDRmjBhAkaMGAE9PT3hCiM3TDAYJQLdbpGKBm3db968WaB4SIPusFe5cmXeAqBJU1OTD8OmLzvdmY/u0hYVFcXvWE53EPsSdHtBugvYkCFDeJEwNTUVrjAKggkGo8ShL/T9+/d54aD/u7m55YiaVBS0D6Vbt268K9SrVy/eLWIUDiYYjFKHbj5M+xR8fX355O/vz89ZoZO76F6+0jYCLwhqPVSrVo3vg6B7j9JQbrqex9dffy3cwSgqTDAYZR7qbsTExCA2Nhbx8fG8C0L7I+gkMAoVCNoHQl0V6rYYGxuzxX0UBBMMBoMhM2y2KoPBkBkmGAwGQ2aYYDAYDJlhgsFgMGSGCQaDwZAZJhgMBkNmmGAwGAyZYYLBYDBkhgkGg8GQGSYYDAZDZphgMBgMmWGCwWAwZIYJBoPBkBkmGAwGQ2aYYDAYDJlhgsFgMGSGCQaDwZAZJhgMBkNmmGAwGAyZYYLBYDBkhgkGg8GQmXKxanjc83P484grkiyGYta4djBR6RXokxB3/gA+vEqGWo3OMB3XHprClfIECfdClE8kMqTVbjU1qGlUhHolI1SsYw4do4rCBcaXUH3BSPXEln6dsNwpHhmajbHg4mNs7y37Pp3KRsbLP+HZbQ5iI8RQ67YZNleWQL8cvg/pLvvgt+F3/Hf1JTIyhEwpqGlWQYX2ffHV5LmoNaYVKrLtTApE9V2SjDjExKSDrzPiaETHpvPZKonkLd5v2444Tix44mIhLuBlKT2S8dbrPlxc7sPrbbKQJ18qdJyBJvZLoV8ps4qrNfoRDV8GonVwMNoEv0Er74ewOL4RVVpXRLrzcYRN/g7em+5DhWuHXFB9wdBujQnL52JQ+7boPe03/NjHULigeqQ570bIyXfQqFMDajQjNg7izM3ByhaS/3BldV906tQXtpc/QHF/IjWeqWKKILJpA6OGdaBTsya0a9aGbtM2qPr9MjQ9Zw9jay2uMYlE4q69eB9WFgus7FAOOj0rosHwTTh/3xVX/5yGlvpCtqqR7IbQDQeQUmcSzKY2zRSMaE4wyqSFUTJI/N8gNY0eaUHLyhIafG4ujDvjqx51+PIisT5I9ON/gJEPbJREJUhHwslNCL+ni8qL5sGocgU+l6RxghFbXltMCdJ8X2QKhoYpdK3MkV/3hJp6ZnlxjgzUsg4ZUlFJwYh5fQfnjuyH3Sln+MULmTmIxksnBxw9eBin73GtkJCrrJDwfxG81REZHeeg1qi6UK8g1PqMeE4wvmxiqGZ5JSHOwwOEe3w1PSvoWWoL+bmQcK7I62D+UO2rZtBrmPu+eATeP48j+/fhyL9e+JCf/qaG4cUjV7i6PoTHmxghUwWhoySqQzR5+sc4Ymkoos4rgUiT1J9wjPinCZcpcR7EfqIVMRBRB1eTWCy+QRKFS8pJLPlvZWtyR8uK+F77yOekHBlF7nDPf1urFXl1P4nPk04plZc4hOwfrMd9nh4ZtC+YiIVsuZLymPi11yG3uedy7riORKcI+blId11LHuuLyG2RDnm4/BbJ/ujikBtk04imwrPT8jEmvbc/I9I+KsnlF9JKi95jSIbZhSrmmcoAKmRhpOPN6cUY/6s/2q6yx84ZraCPNASctcPZ50KbKAnC38smYO5Rf2ibVoOuhgFsrC2hk3n1y6T748SCwejfv38x02DMP+4nlx55iacdgvZ5QH3EEtTsYcTnqWtpQY1+sxmxkMTTui6NEiivUoREeiLhRQp3pAENq2aoJGVoOd37GF7+uBlJcSJo9PwZ9RZ355ySTFIDzmHhiLGwS+yHDYd3YrKVFleekXC57AT/PF+cBBHennhF3R+tZmhuUzVf90fpEYRD+UnzJ3/N6k0mHXrFtwDiEHsyvArXcor0yLe7/biWI4l47R1MzLTMSL/1ziQ83oM47NhPrgcVoi1I8SCbuulktjbFSjqk60Z3qS1VoRAHkNDRNYlzld4k0PPzp6Vfmk1cNDgLg2sRvc7ECbm5KInyyo8SsDDS//kxswygS578doPEPHvGJTcSff82ee9gTwIWDCGuxhrEWb8BcVtyjMRECT/Ik0YCTs0kfSfaEU+++OLImUlVaetKdLpvJtmKWiCWnJ9Rk2hw1zUbziNX44VsFUR1A7fSX2HXgBaYdzUVtWadw6PxLzB2wFYkT/0LDmt6oVqRmoA4+D96iqD44g49iFCpdnO0rVdZOC8KEqT+Mx/Phh2EaNG/aL6+66fWUeK8Ak96b0RKmh4q272C9ZTqwpUCUEh55YMkFAeGW2D6eWDQvudwmF5Tzi1yKmLW9YDnz/d5hZaOCOqdF6LevlWo3ugLQ2fpL7Gzf0vMv5aMqmOPwffYGFQRLvEkP8Tqbt3w66M0VBl9GM9PjkM14ZKqocKRnslwWdUZPdc+hajtGAwlV/CgzmY4HpwKi3z6v5SKeBf49emHsA8j0cDpT1Q3/fzKSZ6shVvXVUhK0oXejiewmd9Yht5tOZZXeiDOrv4VF4KEALI8pOPtQ0fcDQTqdhqItmb5DU1ooPbAX7B6hPknMZQJyVuEjrJEoEM0UG8qzM/MhT4dUyUSZMS9R5LXHUQe2I9Yr3hONObC/MBaVK9XQDjsx9OY1HQMDkdooftmV1xeYonsd0uC92OY5SxciNNGjy2uuLK4WeH+XmWCCoaqEn1uGjHlzFKuNSH6rRaTy2Gq0hWVQmJ3fkvuapiQZ3t8iETIzULis4M81aXmuBZ5tNpVZpNfbuVV2q5b/CXyop4G9/wicme4PUmW8hgZoefJcwtN/p67fXaQmAJ+SeKNxaSJJvf3aFqR5bfzdvnGOc4idWi5aVqQxTeUuwv9S6j0XJJ0v90YZDMXl5MNMML+JU5PVA1DkQQdh3f3SYh6k18LnoUmKi66hNZbe8pk8suvvKLgfd0JvjH5uW6JcN09G7+7AB3n7cac9vnN7RHBoFE3fGNZpVAui8RtPZ51/gmJSTrQXXsHzX9qKeXnk/DfsnZ4sdkLRMsGX1+/jwadpJlSqXDf0AsdV95FWq0ZOOvxJwbl8CST8cC2K3r89hhpxuNw7PlRjKkqXFJBVFowEp5twZDuy3EjVhMtV93E3d86oFjeiCQE/+7YiRtvixsMpQ7Tb+ZiwXe1iuC7f0Dkgm/g+78YGPy2FdW4pi8P4md4N2kt4uM5o37qWbQ9MER6lGMu5F5e+aHQPgwJUg6OxuNpZ5Ehqouqf3vAor+ecC072fo5RIYwOhEEy1FS+jIkwdg/3Aqzzsej8gg7eJ6chGzeH/cxz7ChVyesvJsE3d6/4+k/89BIZf0RDioYqog4/CpZ0saIVKliSETUxB70J3lTXI+kDIySpLuu4eMG7vbelr8ZHX+BPDejJjnInZGHZPo9Cimv/FDoKEk8eT+nHnHmnt3ZYDAJDs7v0+NJxGxz/r7bGnXJi3/yGdqIOkemcWVJv7PuW7zylGXUtUXEkrornPtnvcKZFBT1ogqopoWR7AP7KQOwJHA4DowNwJR5Z5FYYzrOeO3D4GINTETi0XlHeHws/ihJFesBGNzGpHAta7ovgod3Q9CVqjC+eAeNe2fGXeQh6QZetvoOET5pEPXdieaOc1GpoFZPUeWVH4q0MLgWP4Br8UO5Fl+t7WpYOtnCUJqZlHAHrzr3Qbh7CtSMBqOO21nUrJ33r0h2+Rmdeq6Dm9gcsy94YPe32dynOFesG/gtfnGO5qwZE0w86YNDI/P5TlQFXjZUCXE4ubaiAzGq2p2sux9Lkh7YkjY0Ak/TkixzyuqQEpPoj9FKFo0nJoknJ/KxBc6d1hXYSUcSnYhvM9qhx93bxpZEFdTslUZ5KdDCyAixI+6GIu7ZNYjLjPM5Ijc/k0Ri9w4m9/g4De6+yadJUj5/RMShkZmRnjodyNrH2QpdHEauLG5HmvQfTDpxFh90upAN7lnXo8nHKOm/WdlRjUjPqJvYOmsZDrq+wOV1kzF1Rwg6227H/Pb60LawgbUJ58GnvcatW8+QwN2e5L0Pk9uPwHY3xazFoAjI24t4s/Yk0sWa0GzVUmrk4icksRBndTgGByM592OqcHmluboggcbJiLShY2Ulpe8mDvFnluPlT44Qiznny2oq6v48GNpSTRwJklNSMhfgSXuP8Ajh+SVhuLVxKua5dMD6ifUQk8LdoG4AAwPut3FW6L1N49BhxHY8VZ7qJTuCcCg1iTeXkKa8H8klkS6x/vFv8jkgMZycHF+Dj8LTMG5Hxi+eSwZZGJPmcx1JqLKYGNFPSdBwwd+mw4ADdpO4fEfvxCTp7HTygCsPamHc1jAjHgf9cgy9lnp5KcrCSPQmb/obC/0StYj72hMkzOEcl86Sd8ftSdDmn8jzgVbkLrUsRIbkwdA1JMK/4F6HJOcVxJpaXLRfp+lA8uOS+WRCj/rEpPkMcsI3iSTeXk6saFlqGJOOk1eQhSNbEGPTXsT22ju5Wk5lBRUQjDTis70X0eUqiYj70trMPEq8cvVfxbluIX1NNfnQXpFOHdJj0WnCfddKQUYg9zz19QSxEJJIk9ztYEs+5BGNKPL+587ERY+a5J/vd+ae2f3PF4JolIHyUoBgZIQ5kBctqhFnzn3I/ux8EomIs64huVurMXnYbRDxWrCehNx8lY+7kgtxELmwtAupoZk5QU+ka056ztlL7oQKP534mGzvZ0o0qdsiMiAN+ywkR9xyxJmrFCrR6ZkU7ovnAVFQN6mPpvWNc0ThZZH63hfufrGoVKsJGpvpy3EYT/ko9fKSROD03EHY5Aq0XXIeu0dXL+PfhwQxQd54+V6E6g0ao5Zhrh7k5Ai88PBHklE9WDSsphST84qKSsdhMBgM+aIanZ4MBqNEYILBYDBkhgkGg8GQGSYYDAZDZphgMBgMmWGCwWAwZIYJBoPBkBkmGAwGQ2aYYDAYDJlhgsFgMGSGCQaDwZAZJhgMBkNmmGAwGAyZYYLBYDBkhgkGg8GQGbYehiqRHoWExw8Q6xuEtJgUEI2KUDc0hlat+qhk2Qy6Rqq8YUZOSLgXonwikZGjdqtBTaQOtYra0KhSHdp1akKzoLVRGXlggqEKpAbjP/vtCNl7AvG+0YBeNVSopg3J2zeQJGYuBqymawbdFSdh81PHcrHaWLrLn/BbvxP/XXuZuYhvHkRQM6wD7R7f4avvp8J0UFNI2RKKkQvmkig5GSHX4De0O17M+R/ik1vCxO42Woa+Q/uX/ugQ+AjmUyy5VpVrcZNjoW5Uo4x84cl463UfLi734fVWMUtrV+g4E00OLYN+pcwnVmsyB40C3qHtu2C04n53k6ObULV9BaT8vRMhQzvj2dhdiPpQ3B3tygHUwmAoJxnvLpOXHYyIM0TkjuVkEvoi71LiGe+OE88aGuS2Vmvy+n4ZWflYoTuffSYjzI6469GFgEXk7vfH8u4AJw4n/63r+3l/ktH2JF41txORG8zCUFbSX+Ht4tmIuB8FGPdAjX07YNok7/KzaiZtYWCjDbWq1tBropCdUsssGQFBSE2nR1rQtrZCnh4c9WqosmQnag76GmoQI/3cRgT/GylcZEiDCYZSko7Ek78i5Gwg6EbCugvXo3ZbKRsJU9RrouqKY2h4cDaMpO1JrLJIkOb7Aqlp3KFmTehamkuv7BXqo9q4QahAdzxKe4NoR2fQH2FIRykFIyHwARyPH8TBU7fwKk7IzEESwnye4smTJ5npqTeCpd6npEQ7IWTbOaSLOQui8XjUnNaygI7MCtBpPxDVvmkGTSk3xby+g3NH9sPulDP84oXMHETjpZMDjh48jNP33iBVyC37JCHOwwMkgysjPRvoWeW/+L9m69bQ1aOvghgSTw/E5+lWiUfg/fM4sn8fjvzrhXy7OlLD8OKRK1xdH8LjTYyQqWIIromSEEWe/DmBWBtlbioDzu80Hfg/4pnbNU97Tc6s+I5YGAj3ifRJv10vZdu4pswjJon2I8hdumGPSI882eRexD6AaPL0j3HE0jCrjDRJ/QnHiH/2QorzIPYTrTL3FoUmsVh8g+S74VphKIk+jJTHxK+9Dr+RkXPXTV/Yi/Yq8Wko7EVrMoWExQn5HOKQG2TTiKZCGdByMia9tz+TuiN+kssvpBXdJU1kSIbZhSqsb6Y0USILIx3+xxdg7Jo36Ghrhy1jm0BLJMbbK7th55RLzTkzc/j6o/hliHGmCaXZEC1szPL6sEUh3R8nFgxG//79i5kGY/5xP+6pCkm6HyIdrvFDhWp6nfHVIIsiDJOm483pxRj/qz/arrLHzhmtoM8Z4gFn7XD2uWBDSILw97IJmHvUH9qm1aCrYQAba0ul2aSHRHoi4UUKd6SJClZWBe9Fy9UMtawxVc5so8pASQ04h4UjxsIusR82HN6JyVZaQEYkXC47wT/PFydBhLcnXlF/RqsZmttUVc3ha0E4yj5pL8mRyb3JrFNveOVO8/md9NajraMmabzwmpSWL4qcmlCVU0QRMei1jXjLy7xI8SCbuulktjbFSjqk60Z3qS1VQUhe7yZu+nQrRBG5029X0Xr10/zJX7N6k0mHXvG/XxxiT4ZX4cqSs1i+3e3HWWJJxGvvYGKmZUb6rXcm4fEexGHHfnL98wasxaMELIz0f37kd7q/LTIiHofCSIaQL5X4S+RFXY1MC6PWDySC3zoyjQScmkn6TrQjnrzFEUfOTKL1CUSn+2bimeeLiyXnZ9Tk96TVbDiPXM21/aSqoLyBW6luWN+zM366lwTdXtvw+NJCNMluQiTfh22Xb/Cbe1WMO/wAh743lZPix8H/0VME0R3Ci4UIlWo3R9t6lYVzWZAg5chYPJl8CpIMHeiuu4fmK5sX/7nSX2HXgBaYdzUVtWadw6PxLzB2wFYkT/0LDmt6oZq8m0pJKA4Mt8D088Cgfc/hML2mnFvjVMSs6wHPn+9zb3dnmLlch7lN/iYGCbeHZ6PpiInLgFr732DptAqGuW9Pf4md/Vti/rVkVB17DL7HxqCKcIkn+SFWd+uGXx+locrow3h+chyqCZdUCSWO9EzAv3NtMGi3P2A2A2df/IlB2UYBUj02oU+HlXhosQLXndaiUyXhglKTgEjumX25ZyaaDWBy0R2Ne8vDSUiGy6rO6Ln2KURtx2AouYIHdTbD8eBUWBRlJDY9EGdX/4oLQWIhIzfpePvQEXcDgbqdBqKtWX7OogZqD/wFq0eYF86dlLxF6ChLBDpEA/XmoLH7LhgX8P1LnJbicd8tSE0TQWPiX2h9aETeqM+PpzGp6RgcjtBC982uuLzEMseetJLg/RhmOQsX4rTRY4srrixuJh8XuKxBBUM5EZPg/YOJPu2M0ulOtnhltxGTyMNf2xEdjRpkpH2A6nQ+pb0gAb10M01nvcEkOER+TxZ9bhox5Ux4zvIh+q0Wk8thxfjsUnbbeBejHnUxOLdtmB1JKvBRUkjM+s6Zu+OLDMizPwKkui+JNxaTJprc36RpRZbfzusAxznOInVo+WlakMU35NI1XCZRymHVTNRR1aIZGtKmIO0VXvtlG/CLcsKJU25Qaz0Vc0fUVZ3Op/RQpAYLvW3VzKBlKL8n023WDJa0yRTpoc8Pi9C3ejE+u6IZ+i4/gtOnT+eTDmJ+R2oZ6aDjPHsp17PSESzva8bZGYVD8soTiWHUutGCto211OHkT6R648Plp7xCqRl0gdE3ZlDLvJKNVLx68hhBaZzNU70t2ljntuqS4e3mhnDuV4oqN4dNAUO4yo5yTz6LPoPJTUfjUJgWum56gKtLrTgzMR2v/hiOTvN9Mfjkbewd+rV8BUMSgn937MSNt8Wdd6AO02/mYsF3tWT/++LPwNt8ND5+oL72Glg5/YzKBfb+y07Csy0Y0n05bsRqouWqm7j7WwcoLC5UoX0YEqQcHI3H084iQ2QO4/PuaPJd/hFraf/OhduQ3Zw7ooEKE4+hhd0oaOX+YyTB2D/cCrPOx6PyCDt4npwE0+z3pD7Dhl6dsPJuEnR7/46n/8xDI5X0Rzh4O0NZSXtOtvXU5QRPg5hOP0/4zuzIS2SOhRapNvgP8lIRgRelaW7HnSZeVekICeeSdN9CYgttq0tHHH6VLGljRKpUMeRHlfQH/UneKNKPU+goSTx5P6ce72I4Gwwt2G1LfEL8exhm3mvYnfg/yWeuTdQ5Ms1Mg//Oum/xyvOdRV1bRCypuwItYr3CmXOIVRcln96ehKvzbdB/52tU7LUdTy5NQ8zGfujze0X8dM0RS1sqwDSUROLReUd4fCz+KEkV6wEY3MZE9tY1yQkv2/RFxPM0qLVdDUsnWxjmYwZIHv8PPr85QXvuYdTrlU/YOCXZB/ZTBmBJ4HAcGBuAKfPOIrHGdJzx2ofBhRnAKQyKtDC41j6Aa+1DudY+3xEPnjhEbx6O5yuuczaJEXR/vQjrnztI7ahMdvkZnXqug5vYHLMveGD3t9l6UONcsW7gt/jFOZqzaEww8aQPDo00Ei6qILxsKC1iErRvEN/xqVF/DnF8uI30rqpP2tveI7HCHapFOHn7vUlmi2gyjrx9L2TnJuU5CRpUjTjrdCX+7gWYIeJwcm1FB2JUtTtZdz+WJD2wJW1opKKmJVnmlNVxJybRH6PlawUo0MLICLEj7obUCtMgLrMcSbqQn5N4EndsKnHV4+4T6ZAH4w6RuALMgohDIzMjPXU6kLWPs5WnOIxcWdyONOk/mHTSF3HXu5ANn8o7mnyMUo3Y4uwocacnRR3GjRrDXBMQh97D1oWb4Fp3NtbN64gC2lQlpiq+GjyQnyhFPt7Ch4v+yGPnSMLx34Z5CLkYAdRoBr16uZrXqJvYOmsZDrq+wOV1kzF1Rwg6227H/Pb60LawgbUJ9+Fpr3Hr1jMkcLcnee/D5PYjsN1NMetWyJs0Vxck0BgZkQ50rK3yWC4Z75/i3YoR8Jp2ECmJhtCZuR9N90yEXr4dNhIkp6RkLsKT9h7hEUI5SMJwa+NUzHPpgPUT6yEmhbtB3QAGBlz5cVbovU3j0GHEdjxVjmKTHUE4lJeII2S0MLdEpN+WrHT6KFxQUdL8yLtpluQO1+I5G7cnz3f/Q6JeBZGkwBck6vJB8nq0TeY8k3yGFBNvLiFNeX+bSyJdYv3j3+RzAGc4OTm+Bh+tqGHcjoxfPJcMsjAmzec6klB5mgGKsjASvcmb/saZQ6QadYn7+hPk3enT5N2xgyRo22riM6EPcTXW5K5zZVO/D/E9/ISkyPDLk5xXEGtqedH+naYDyY9L5pMJPeoTk+YzyAnfJJJ4ezmxomWqYUw6Tl5BFo5sQYxNexHba+/ka5mVAZRfMJIeENvWWvyEn86r73GGYDkgJZBEbp1GntQ3JM68OHxOzpwI3GvSgbh9/yPxu/CaSIQfySSN+GzvRXS5+0Rc5W4z8yjxyhXCHOe6hfQ11eRDoEU6dUiPRacJ907IFwUIRkaYA3nRgnPDcpUHFU5nDS1yp6oZud+8K3k2aSkJOOpEEgrjs4qDyIWlXUgNTaFh0jUnPefsJXdCBZcj8THZ3s+UaFK3RWRAGvZZSI64RWVeUzGUfk3PJPedGPndUjyxXId/zixGq/K05oMkDsmvXiP5vySgYiVoVDaEZlUTVDTSkRJLkElSuC+eB0RB3aQ+mtY3zhGtmEXqe1+4+8WiUq0maGymL8chTwFJBE7PHYRNrkDbJeexe3R1+f8OuSNBTJA3Xr4XoXqDxqhlmKt7NDkCLzz8kWRUDxYNqynNJL3CotSCIflwC7ZDhmNLWG/svXQYUxrLKSiBwWBIRXkFI8EbB6YPwexLBvjh5EVs/U7OAVoMBiMPSjNKkuDyBxYssed7nSWRrtgzczQWnEvHdxsPYA0TCwajRFASCyMZD1d3Q7d1oWjWpxUq+jrhQagRvl17DPYLO6EqUwsGo0RQDgtDEgkvT1+kicPw5NI/cFdrj8VH/8WJJUwsGIySRDksDEkEHjo44P7bDOiZWqBTz65obMSUgsEoaZR+WJXBYJQcSh4azmAwShImGAwGQ2aYYDAYDJlhgsFgMGSGCQaDwZAZJhgMBkNmmGAwGAyZYYLBYDBkBPg/00p+taMw+AEAAAAASUVORK5CYII=;" vertex="1" parent="1">
          <mxGeometry x="61" y="120" width="268" height="243" as="geometry" />
        </mxCell>
        <mxCell id="URKf0z_btjTz6VOf-sqR-3" value="" style="shape=image;verticalLabelPosition=bottom;labelBackgroundColor=default;verticalAlign=top;aspect=fixed;imageAspect=0;image=data:image/png,iVBORw0KGgoAAAANSUhEUgAAAQoAAADlCAYAAACrrrkqAAAgAElEQVR4Ae2dB3gU5dbH12FdY2LCxShwQ1MUbBQBIZ8BQQQvKl1Rr16lBhQVUUQQAfEKCJcYejeANKUXG01ICKGFQCihJiRATEJLQgJZY1j4f8+ZLWyyJZutMztnnmef3Z2dmfe8/zPz27eeVwXeWAFWgBUoRwFVOb/zz6wAK8AKgEHBNwErwAqUqwCDolyJ+ABWgBVgUPA9wAqwAuUqwKAoVyI+gBVgBRgUfA+wAqxAuQowKMqViA9gBVgBBoXE7gGdTgetVovCwkJcu3at1KugoED8jY7hjRXwpgIMCg+rnZmZiR07dmD+/Pn4+uuv8dFHH+HNN9/ECy+8gMaNG+ORRx7BP//5T4SEhECtVkOlUjn0CgwMRM2aNdGoUSM8//zz+M9//oOJEydiy5YtuHz5sodzxZdXmgIMCjd5PD8/H9u2bcN3332HPn36oHnz5ggODnbooXcUDhU5rlatWujSpQsmTZqEY8eOuSmXfBmlKsCgcNLzZ8+excKFC0UoPPbYY7jrrrt8BgVHAELgeP/99/HHH3/g1q1bTuaaT1OqAgwKBz1P7QWrVq0SwVC7du0KQYGqFq1bt8Y777yDTz/9FOPHjxerIuvWrRNLIbt378bhw4dx5swZUFXl0qVLyM3NRV5ensWLfqNjqJQQHx+PjRs3YtGiRRgxYgRefvllVKtWrVzbCBrffvutmIaD2efDFK4Ag8LODZCdnY2ZM2eiffv2uPvuu8t9AB944AF06NABn332mVja2LdvH6gB0tsb2f3LL79g9OjRaNGiBQRBsGo7VY1GjRrlExu9rQmn55oCDIoy+l28eBEzZszAc889Z/MBMxb1n3zySbE4v3z5clBVRKobNW4uWbIEnTt3tgq8GjVqYP369VI1n+2SgAIMCgB///03VqxYIZYcbP37EhyqVq2KXr164aeffgIBRY4bVV2oFFGlShWLUsYnn3zC7RdydKoXbFY0KJKTkzFo0CCEhoZaPDTGUkPdunXx+eefg9oR/KkR8Pr16/jiiy8sShidOnVCcXGxF249TkJOCigOFPQQLF26FOHh4Tbh8NBDD2H48OFISkqSky+dsvXkyZN45plnSmnx73//G7dv33bqenySfyqgGFCkpqZiyJAhNksPNICpd+/eSEhI8E9P28nVjRs30LFjx1Kw+Oqrr+ycwT8pTQG/BwWNVHzllVdsjnOIiIhATEyMOGRaac43zy8NC+/evbsJFtRWQ2MueGMFSAG/BEVRURHmzJmDJ554wnTjG9sc6D0oKAiRkZHi2AW+De4oQCWLJk2amDSrXr26OI7jzhH8SakK+BUoMjIyxAa6+++/33SzmwPiqaeewuzZs3ncgJ27nQZ9BQQEmPT78ssv7RzNPylFAb8ABc2xoDq2ta5N2kdzHrgY7fgtPW7cOBMo7rvvPly5csXxk/lIv1RAtqCg3osFCxagYcOGppvavPRAow4HDx6MtLQ0v3ScJzP1119/lRoKTkPOeVO2ArIDxdWrV/HNN9+UupHNAfH4449jypQpYhwHZbvWtdxPmDDBBGDqLvanMSSuKaPMs2UDiiNHjqBfv3649957TTewERA0c5OqHly9cN9NTCM4zeNjxMXFue/ifCXZKSBpUFARmIZLt2rVygIOBAka+zBw4ECcOnVKdsLLweCXXnrJpDuNYOVNuQpIDhQ0IpD+vaj0ULlyZdONaiw90DtNpR47dixPk/bwfUtdzEbdaWo6b8pVQBKgKCkpEasNH3/8MerUqWO6OY03qfGdokbRLEiaxMWb5xWguBdG7emdYmbwpkwFfAaK06dPY9asWejatSuoC878hjT/TL0XFFouMTFRmR7yca6pcdjoj6lTp/rYGk7eVwp4DRQ0kGfx4sXifIryIkRRIxoNu/7xxx/FqNO+EofTBT744AMTKN544w2WRKEKeAQUFNWJeiCo/52mLVPkJ+O/kq13apikwCrff/+9GApOof6QXLYpTofRZ9RNypt8FKD2vgsXLmD79u3iiGSKN/Laa6+JYRmnTZtWoYxUGBSUMPWxU7Vh9erVYnh4mlRFQ30pDH39+vVtTsAy3nBVqMdCpRJDzdOMTpq4xTEQKuQ3rx1Ms26NfqN3ih3Km/QUoPCHmzdvFqOu9+zZE82aNRN7Bc19V/Yz+dbRrUKgIELRWhJlE3TkO411oLkWAwYMwJqvv0acSiW+Li5bhps+iCvpqEB8HPCPf/zD5POdO3eyJBJQ4Pjx46BSQbdu3cR1YRx5Bs2PoQmTFYnnWiFQ0FRkWxOuzI2gz3Qc9cPTojdUYqB1L4yb7sYNEygIGDvvuQfHunTBxSVLcJP/sYwySeadFisy+pdGvfLmfQWMwwZo3BDFODX6o7x3+oN++OGHxWr90KFDERUVJbb90QjnimwVAgVdeO/evWLcSIIAdVdSVYMiPVMsg5EjR4oh7R0JNBt/772lYBF3113i950aDY526oScH37ATTO4VCRTfKx7FRg2bJjpxqQlB3jzngIUGJna+igkY3lQIIDQCGWKzkbDCA4ePAgKueCOrcKgcEeidI0T77xjAsWllStRnJ2NP2fORPLzzyNOEPTQuPtuHH3lFeQsWoSbhYXuSpqvU0EF1qxZY7pJaQlE3jyvAAVvpvY7auS3BgiNRoM2bdqISzLQ0gyeDvbsM1BkTp4swuDSihUWqv998SKyZs/G4bZtTdA41a+fxXG8wzsKZGVllbpZc3JyvJOwAlOhaQs0zd/a2CKKE0LxTDds2OC2koKjEvsMFPk7d4qgODdunF1bCRrZ33+PG7x+pl2dPP2j+YjZlStXejo5RV6f4rVSia1sCeLRRx/F9OnTfRptzGegoKoENWSmdO9e6qagRhtumygliSS+0Grpxhu4f//+krDJX4ygTgIaXlA28BKNW/nhhx9Av/t68xkoKOP769fH3jp1SmmQNmQI9terh7+5eFtKF19/ocYxIyiodMGbexSg6fzmvUqkMYVSoLVhqRoilc2noDj+1ltiqaLErKvG2HZBECnOzJSKToq3gxZNNo9PQS3qvLmmwJ49eyy6OmmNFVprRWqbT0FxISpKBEXu1q2ldLkQHS3u3/vQQ9ByKLtS2vjyCy3AbCxV0CpjvDmvAAV5LrvwNcX8oJnUUtx8Coq8HTtEIJyfMMFCm6y5c0FjK/aEheHGiRMWv/MO7ytA9WUjKCgmCA+7r7gPCATvv/++SUfSk5aPoABNUt58CgpqtKQGzeOvv25Vo4tLlyKuUiUc/L//4yXurCrk3Z207of5yNz58+d71wCZp0bzZNq1a1cKEjRgkYZjS33zKShInP2PPYZDzz5rU6crP/+MvzIybP7OP3hXARp9ayxV0GhBqRaVvatK+anRZMoGDRqYtCMNaXSzXCbZ+RwUf124gL/OnStfaT5CEgpQKz0VlY2woP593uwrsHv3bouo8bSUhBS6Pe1bfudXn4PijimOf6KJYzTegjffKDBq1CgTKEJDQzl+iB030NozNNzaCFYaKyHHSGGyAwUN1DrQuDFO9u6NWxw7084t6rmfCgsLUbVqVdPN/+qrr3ouMZlemSZj9erVy6QRgYKGZW/cuFGWOZIfKAoKcORf/xIbQQ9FRIiTyWSpvMyNXrVqVamHgP45edMrQGvQUOwVYymC3mmq9zEZT0OQHSjIFbdKSpD68cciLKj7tGDvXr5HfaBAjx49TA/DPffcgwMHDvjACukkSdXhyZMng7QwhwSFeMzLy5OOoU5YIktQGPNJMSso6A3FsKCJY7x5VwEarUn/lMaHguIhOBKLxLtWeic1Gk3ZunVrkxakCY1knTRpkl+0p8kaFHQLFCQmYk/Nmjg9cKB37ghOpZQCtNaHecwEmgdy/vz5Usf48xeajzF69GiLUgRN6KIgT/6yyR4U5Ii/L1/mhk0f3pHr1q0rNQ+EVhVTwmJBFNCn7LRwCj1H4eqowdefNr8AhS2HcBeqLWXcv5+GIFeqVMlU9KYW/rVr17o/IQlcMT4+HhEREaa8GqtetFgS/eaPm9+C4uLy5Ujp0QMlMm9EktNNR8s3lF1tnpZwoLiP/rDRbE9amMoIBuM7QZHiWvrzUpd+CwpjTE7qFbn622/+cJ/KIg/79+9H9erVSz1MND+EQsvLcbj3rVu3QFWrsg2VBAkaPNW7d29QqEB/3/wWFFTtyJozB/H33Sd2o9IALY6c5Z3bmR4ca/+81EMyY8YMr8d7dCbXFKyWSgnUKGksOZi/U7RrGi+hlM1vQWF0IE0oO/zCC6YxF9d27zb+xO8eVmDp0qVWF6epUqUKaHk7qc2apAbI5cuXi5AzD9JjBASVIGjBHSWOF/F7UNCzYCxd7K5eHdr0dA8/Hnx5cwWuX78urvdi3oVqfPDovVGjRhgzZgwosOzNmzfNT/XKZyr9zJ07V5zJaT4nw9zG4OBg0CSuNAUHUVIEKIx33C0JxSA02qSUd1obkxamoUlk5g+h+Wealdq2bVvTQlJnzpxx+wxLmu5NbQ6ffvopmjZtaned3CZNmohVJX/r6nTmnlMUKKwJVJiUhGsJCdZ+4n0eUECr1YKqJAQEGnNgDgprn2k4NMVxoDaPvn37itGqo6OjsXjxYrH7ddOmTYiLiwNN5U5MTBQHOVEXJe1ftmyZOFPzgw8+EAPGPPjgg+WmRwPGCGhKan9wxM2KBgVVSQ42by62Xxx/4w2Oz+nIHePGY6jBkCaT0ZwR88hZ1oDhyX2NnnoKYz7+GNRjw2NvrDtY0aAgSW6kpOBIhw4iLHbefTdSBw+GeVRw67LxXncrQN2QFNmbgs726dMHFI3a2mpZrgKDGimpykGljB+XL0fq4sVIfOIJHG7XjiFhx6mKB4VRG4oEfuDpp0Vg7KpcGTRgizffKkD/7n/++adYtaCSB3VXUtsCxXmg3gdaD+PZZ58VodK4cWMYXwQZGvfw8ssvi8dSVWLevHli1cS4VkbhgQNIbtNG/wcREICzX3yB2z5oTPWtwo6nzqAw0+r2rVvIWbwYe2vVQn5srNkv/NFfFNCmpsK4ngxFeT/Zsyf+UtAkNmf9yKCwopytyFn8j2NFLJnturJhg1iKONy+PQoPHZKZ9b4zl0HhoPb0r0PDwTO++gq0cDJv8lSAqjM06I4bLSvmPwaFg3rRYkVUJaF1SChQzqm+fXmFdQe18/ZhBIHczZtxtFMnhrqbxGdQVEBICsF36aefTF2qBI0jL77Ia6RWQENPHqq7cUOc30O9GOQbaoO4uGyZJ5NUzLUZFE64Wiy+JiQg5dVXsfvBB8EjPp0Q0Y2nUHd22pAhSKhSRQQETQSkmKrUcMmbexRgULioIy0fUHajffRPZu23ssfyd9cVoJLEruBg7Hv4YWROmQJa94U39yrAoHCvnuLVsubN0/+z3XuvuK7q5XXruNThBp2p5HZl40bcLCiwuFrRqVOg7m3ePKMAg8IDuv6dk4PMqVPFxZXFurJKhV0hITjx7ru8fGIF9dZptbiyfj1OvP22WGogPbndoYIiuuFwBoUbRLR3CZrWfn7CBBxo1AhxgoCSK1fsHc6/GRSgEkJK9+6mwEMEiKQmTXD+2295gJQP7hIGhRdFL/7zT4vUqCflQMOGYnfrxaVLYe0Yi5P8bIe1xuDirCwRrDRp7/zEiTxhz8c+Z1D42AHatDTsrVNH351HXXoqFfbXqyeCg8YC+NtGPUa0gj11M5/58ENxHdmE0FCr7Qslubn+ln3Z5odBIRHXURUle8ECUFDgPTVqiMA4N3ashXVFJ0/i2q5dkONDdHbECLE72dhuQ+8JDzyAY926yTI/Fs7x4x0MCgk6l/51izMzrY4qTP3kE1PpY3e1ajjcti1ODxiAcxQu3sth8clOanO5fvQocjdtwp8zZojT9I++8orVyOfpo0cjqWlTsbSUHRMDsafi9m0JeoBNKqsAg6KsIhL/TvMUqEGPSh700MXfe68JHFSkL7vRoLDk554TGwZPRUYi7bPPkD5qFDKnTSt7KG4VFyN7/nxxdOOfs2aJYxLOffMN0oYOFUs7ZU+g3gjz0oHpc6VKVq9f9nz+Lh8FGBTy8ZVVS2nsADX8XduzB7d1OotjDrVsCYqvYXqIDe0ge2vXtjiWljMoe5zx+7HOnS2Op2oQLYNAVQoqTVCpgkZDUgMtb/6lAIPCv/xpMzf08NKs16LTp3H9yBFcP3zY4lg65uqvv+Lq77+Lk6rytm8HBXihc7hb10IuRe1gUCjK3ZxZVsA5BRgUzunGZ7ECilKAQaEod3NmWQHnFGBQOKcbn8UKKEoBBoWi3M2ZZQWcU4BB4ZxufBYroCgFGBSKcjdnlhVwTgEGhXO68VmsgKIUYFAoyt2cWVbAOQUYFM7pxmexAopSgEGhKHdzZlkB5xRgUDinG5/FCihKAQaFotzNmWUFnFOAQeGcbnwWK6AoBRgUinI3Z5YVcE4BBoVzuvFZrICiFGBQKMrdnFlWwDkFGBTO6cZnsQKKUoBBoSh3c2ZZAecUYFA4pxufxQooSgEGhaLczZllBZxTgEHhnG58FiugKAUYFIpyN2eWFXBOAQaFc7rxWayAohRgUCjK3ZxZVsA5BRgUzunGZ7ECilKAQaEod3NmWQHnFGBQOKcbn8UKKEoBBoWi3M2ZZQWcU4BB4ZxufBYroCgFGBSKcjdnlhVwTgEGhXO68VmsgKIUYFAoyt2cWVbAOQUYFM7pxmexAopSgEGhKHdzZlkB5xRgUDinG5/FCihKAQaFotzNmWUFnFOAQeGcbr4/S5uBHYum4sfEAt/b4qAFBWm7sH7JXEyLjsb071dgc3IWtA6eK4XD5G6/KxoyKFxRz4VzO3fujI4dO9p8Xbt2zcbVtUjfNg0DWtWARgjB20vzbBwnnd26i7swK7IlagYICAp7Es1bNEDNYAEqoQoa9BiH39KLpWOsFUucsT8pKcmmb8nvQ4YMsZKSdHcxKHzkm0qVKkGlUomviIgItGnTptTLGiiK0rdiav+WCNMI+nOFUPReWeijHDiYbH4CJnYIg1oIwtMDluBYvv68wpMrMSi8MgSVgMrhw7A5R+fgBb18mJP279+/v5Q/yb8NGzY0+Tw8PNzLGXEtOQaFa/o5fbY5KHJzc+1fp+gstkyJRESYGoJaDbWgB4xKqI5+a6QMikIkjIlAsKBCQOOh2GaAhDGzhfEj0SKQShYBaDp8O8r8bDzMh+/utX/r1q0MCh96U5ZJOwqKkuNLMTCiOgLCItAvaiOOXc5F/MhwBFBpRAhD5FrpgkKXtRw9a6mhUgWi9bcHYVHBKDmGqPZBEFQqqGv0xPJsaZUq3G0/g0KWj6pvjXYUFMiLxZTPo7AprchgsA7ZMT0QLHlQ6JC56E08SKUfTSMMjzXab667FrvHtDBBr/fKq+Y/+viz++1nUPjYpXJM3mFQWGROLqDIx5rImlCrVBBCeiAmy3ppIW9Fb1QVq1IaNBoeC2s4sZDAKzvcbz+DwiuO869E/B4UxfvxTUSgWCdX1/0Iv1637j9twmg8E0BtLgJCXl+AHOuHeX+vB+xnUHjfjbJP0e9BUbgO/cP0vTMBzUZhl40BEyWnp+GlIH3jbGCbCUi2aMjwkas9YD+Dwke+lHOy/g4KXXYMXgs2AKDlOBywBYCcBegRoj8uoOmXiLcBFG/72hP2Myi87UU/SM/vQZE2E52MoHh+ou2SQu4SvGUAhabhMGyXSCOFzgP2Myj84MH1dhb8HRQlqTPQ0VilaDUeSbZKFPnL8LaxRPH0COyUSInCE/YzKLz9lPlBev4OCt2FeehmKFEEtBiDPbYAcHEh3jCAItBeFcXLPveE/QwKLzvRH5Lzd1CgYAV6heobMzWPf4rNNqoUuvTZ6GIASnDXOciw3ovqfZd7wH4GhffdKPsU/R4U2jh80Vgjdo8KoT3xk43x2cWJYxERSI2Zajwy6DfY6EX1vr89YD+DwvtulH2Kfg8KXRYWvF5FHJ6tCmyDCYesN1IUbngPtdU0HL0yus3NgFQKFPCA/QwK2T+23s+A34MCxTgyqS0CxaHm1fDu8ktWRC5G8oQ24jFCUHt8d6zEyjG+2uV++xkUvvKljNN1BRTn53YzzPWoij6rpDsprPhIFNpR3AmVGnUi1+ByWX+VnMK0l0PEqeahXWfjtJQ4AcDd9jMoyt4A/L1cBZwHRRHiRjTRT6RSBeHF6OOQ2PN1J++6TKzsVw8amu9xfwdEHy7dopm3fTiaBQgQgppjxA4bjRh3rub9T262n0HhfRfKPsWKgEKbewFnUg5i97Z1iBnbE88YehMo8I26VjsMmrwMv8UnIeV0OnLypYUN3bkNGNzcEKCmWR/M3JyCrEuZOPzLJLzxeAAEdW10id4rwVgU+lvMnfYzKGT/2Ho/A46DQouEr5obShD6oc7GyFiW70HoMOWE5EoYJRdiMX3gi6hfRa1v3BTbLQJRM/wtjFl1DFKP+uku+xkU3n/OZJ+i46CQfVZNGdDln8fRffGIjUvAwdTLsgqsS5lw1X4GhelW4A+OKqBEUDiqjb8ex6DwV896MF8MCg+KK9FLMygk6hgpm8WgkLJ3PGMbg8Izuvr1VRkUfu1eq5ljUFiVhXfaU4BBYU8d//yNQeGffvVorhgUHpVXkhdnUEjSLdI2ikEhbf94wjoGhSdU9fNrMij83MFWssegsCIK77KvAIPCvj7++CuDwh+96uE8MSg8LLAEL8+gkKBTpG4Sg0LqHnK/fQwK92vq91dkUPi9iy0yyKCwkMQTO4pQsG4q0iZMwNklu/G3J5Lw4jUZFF4UWyJJMSi84IhbJ+fgUHU1YlUqxLWdhALrIRi9YIl7kmBQuEdHOV2FQeFpb+kykR1ZD3EqlR4UzUYi19Y6EZ62xU3XdxkU2gzsWDQVPyZKPZqDXrDiq6lI3LoGi+fOwOSoKEyeGYMVv+9HhnQj+Vl4uiBtF9YvmYtp0dGY/v0KbE7OqtBUeQaFhaTu3fH3H8OwLzAQCQ/XEGER9+ggXJJMXHfn8uo8KLRI3zYNA1rVgEYIwdtL85wzwBtnFZ7FziXjMbBbOOpQ7EwhAFVq1EHtqkEQBArCIyCwzvP4MCYRud6wx8k0dBd3YVZkS9QMEBAU9iSat2iAmmJ+qqBBj3H4Ld2x4i2DwkkHOHSaNglp7aog7qkPcX58B+ykqkdoL2TJ44/UZhadAUVR+lZM7d8SYRr9wjoqIRS9V0r1L/k61r9XE2oxmlUAHu3yNVYnX4T4SOlycXzDf9G5rkaMeCVoHkWvZWclF5lLdF5+AiZ2CINaCMLTA5bgmCG0Z+HJlRgUbgjxFz4Mm3PKX2iAQWHzcXD1hxJcj3kduzQ1cXjhGVyf1UkERWxwd5y/UL5jXE3dk+dXCBRFZ7FlSiQiwtQQ1GqoxX9jWgujOvqtkSooCrG6b1Uxwnbws6Ow06Lgo0PWyr6oS2t6qFQIbDkWiY79MXvSLWWuXYiEMREIFlQIaDwU28rE/y2MH4kWgfqSUtPh28uN+8mgKCOvu77ezl6PlMc12PnC/5Cv1UE7v7seFEHtcVZSa0BUPMeOgqLk+FIMjKiOgLAI9IvaiGOXcxE/MlwfQ1MIQ+Ra6YJiTWQYAgJroeeyLOsL++Svw4Baav1qYiE9EJMtLfjrspajp2hfIFp/e1BfGjJ3dckxRLUPEktF6ho9sbwc+xkU5uK57XMBrn7ZAjsDGuPkFn0Ntnjxv/WgCGiO07vl3ZrpKCiQF4spn0dhU5ox1L0O2TE9DOt6SBkUDtwI2j0YEx4ggkIV3AmzzkoJFDpkLnoTD1LpTdMIw2ON+pvnS4vdY1qYoN175VXzHy0+MygsJHF9h+5wNJJCNUjouQxFhvvn5sreiBdUiNXUxwlbq96Wl3RJKpZ90g2dOnVy8dUNg5eecbpe7TAoLPLjR6Ao2oIhT+jXJ1XX7I+1kmp3yseaSH0bi0ClnSzrEMtb0RtVxaqgBo2Gx8IaTowuZFAYlXDXu+4sMt+qjbjQDkg/cqfievPXj5CgViFWqIqjzq6QVXwY/2sbqP8Xo4Y2p1+BeH5ismVx1EENGBRA8aFv0dqwQHHNnstRTsndQWXddFjxfnwTob9P1HU/wq82etm0CaPxTIC+Byfk9QXIsZM8g8KOOBX/SYfinz/CHk0g9o2ILfWPrYv9Ans1NJYiGMkx2RW/tHhGAVL3bce2bdtcfG3H3tQyrVsVsIhBkYvNnzbUryJWuTXG7bHxJFZAU7ceWrgO/cP0vUsBzUZhl42absnpaXgpyNAg22YCku/8r1mYw6CwkMSFHYW7cCYiGHH1IpGdWbq4p0sci/2BBIogJE05gVsuJOPrU5UOirydo9EyRIBKXQ0dovZBak2yuuwYvBZs7JEZhwO2AJCzAD1C9McFNP0S8TaAQvcbg8JtT10xCqZ1RLy6Gg7NsgTBrRNTkBREoAjA/q/3Wm9Jd5stnr2QkkGhy/wZg5vSoKtANOi/AmnSWgVRdLwubSY6GUHx/ETbJYXcJXjLAApNw2HYbqeRgkHhpmfqdsZSHHlYP5+D5nTYfmmw57OtDApJd4/auCkKD2Fm9zpQCxrUfXUGkiTVgHnH5pLUGehorFK0Go8kWyWK/GV421iieHoEdnKJ4o6Invl0GZc+aYQ4dW0kf7sKORs2WL7WfIWkYAGxKgG7ItfipjOG6M7j16ghGDx4sIuvIYj65ZzTsFJkiaIkHWs+aIJgQY2wDuOx83LpqqUz7vTUOboL89DNUKIIaDEGe2wB4OJCvGEARWBLO1UUrnq4x1U3945FYoiA+A7RuGaL3tc3IKWWvsSx881FzvU4cK+HexxW0avoLiP2vy+gqiAgtNVw/F6m/amil/P48QUr0Muwarzm8U9hqzdelz4bXQxACe46Bxl22MdVD1e9VnIC57pWQ5ymAU5stjM9qGgrTj6pEaskO1+ehuvO1G11l7Bv9XzMnTvXxcYIMZUAAAlHSURBVNd8rN53kUsUDvlei5SYt/CoRkBQwwFYkWrrn8Chi3nnIG0cvmisH+MhhPbETzY6uIoTxyLC0MX7yKDfYK/vhkHhkut0KPqxtzg+Iu658bZLE5RG0Q6cbKgHRVz4GOTZKg66ZI93TlZS1ePqjtF47n4B6pqdMUUm0+Khy8KC16uIw7NVgW0w4ZB1uBVueA+1ab6KUBnd5mbY/eNgULjwbN3OXIcUsZSgwZ4hW+wKjcL1OGaoesRV740sO4UPF0zyyqlKAYUucwM+bBgAIaAB3ltt40EqycCuNSux47T1h9ErDrFIpBhHJrVFoDj7tRreXX7J4gigGMkT2ojHCEHt8V05848YFFYkdGhXfhLOvf6IISCNgPguM1Bos3tJB+3qAdgjDrhSIVZdC4cXpsp2LIUroDg/t5thrkdV9HF2hKpDDnLxIF0W1r3/BDRCEJoP24LLNi5X8McwPB0gvbwUH4lCO4o7oVKjTuQaS/tLTmHayyHiDNnQrrNxupyqMIPCxg1gb/ft9CU4Wi/YFLVK7AoVNIhvOQZXLGCRh0ujWiNB7PG4020aF/gwkucelyUsnAdFEeJGNNFPRFIF4cXo46VGr9rT3Nu/5f0xHE0DBQj3t8Gg6TGIiSnz+n4eZkwcim5PBUNQ18PHv9ur4XvbegC6TKzsV08/evT+Dog+XPrGzNs+HM0CBAhBzTFih41GDDOzGRRmYvBHxxSoCCi0uRdwJuUgdm9bh5ixPfGMoTWe5qmoa7XDoMnL8Ft8ElJOpyMnv5y/NcfMc/2oklOY3fVBfR3fkfk0AU3xpb1hja5b5NQVdOc2YHBzQ4CaZn0wc3MKsi5l4vAvk/DG4wEQ1LXRJXpvubEoKHEGhVMuUPZJjoNCi4SvmhtKEPqhwrYnsgWhw5QTkihh6M7OMo1stG2vWX6owdDeRAkf3i4lF2IxfeCLqF9FfQd8QiBqhr+FMauOwdExYwwKHzpRrkk7Dgq55tD/7Nbln8fRffGIjUvAwdTLFQqsS2owKPzvnvB4jhgUHpdYcgkwKCTnEukbxKCQvo/cbSGDwt2KKuB6DAoFOLlMFhkUZQThr+UrwKAoXyN/O4JB4W8e9UJ+GBReEFliSTAoJOYQOZjDoJCDl9xrI4PCvXoq4moMCkW4uVQmGRSl5OAvjijAoHBEJf86hkHhX/70Sm4YFF6RWVKJMCgk5Q55GMOgkIef3Gklg8KdairkWgwKhTjaLJsMCjMx+KNjCjAoHNPJn45iUPiTN72UFwaFl4SWUDIMCgk5Qy6muAwKbQZ2LJqKH2USg7L48hns27wSi+ZMR3TUd5g2+wes3ZGCi1KKfmfn5nGH/QwKOwLzT9YVcB4UWqRvm4YBrWpAI4Tg7aV51hOQwt7rGdi1dDw+6B6OOsECBHUIqtWpgxpVAgxxHQRUebIbvlx9wm70ap9lxc32Myh85kn5JuwMKIrSt2Jq/5YI0+gXz1UJoei9Umqrdhp9ch0b3qsFtRic9n40HzAHcekGW4sv4cj6sej2qEYEhhDYCIM2ZNkPrGy8rNfe3W8/g8JrzvOfhCoEiqKz2DIlEhFhaghqNdSCITKUUB391kgVFIVY3beqGHi2aqfpOGZRxdDh4rr3UF9DeREQ/K9opEgkip/+LnO//QwK/3l+vZYTR0FRcnwpBkZUR0BYBPpFbcSxy7mIHxmuD40n6bVHC7H2vdoIqVwf76+7al3X/NXoG6YvHQnV+mK1pJjnfvsZFNZvA95rRwFHQYG8WEz5PAqb0owRoHXIjulhCNcfhsi1knq67OTYyk9Fm/HJY/rVuNS13sMGiQXhtmJx6V0VtJ9BUVo+/uaAAg6DwuJa/gMK3dnZ6BJCJQoBod3n4ayddTstZJDAjoraz6CQgNPkZgKDogAJX7dCsKCCEPQMhm21UT2RrGMrbj+DQrLOlK5higaF7ioS5/ZEwyABQuWn0WfBYciqAuWk/QwK6T6PkrVMcaDQXUfOqT34ZeF4DOxQHyHqynii8zAsTrwksW5RG7eMG+xnUNjQlnfbVkBRoLj+Mz6sqx8zYVwMSF27Ld4bvxCbU65KHxRusp9BYft54F9sKKAoUJSkYcfyH7AoZh5mfvcNhvZ+CU+F6lfdEoLro+t/N+GcpMZQlHGam+xnUJTRlb+Wr4CiQGFFjqLUn/Fl+zDDyM2qaD9xrzSHcVuxnXY5Yz+DwoaYvNu2AkoHBSlTkvo9eoSpQdURofqbWJghr/7RitrPoLD9PPAvNhRgUJAwl7D83Wr6CWI0HH21o8v92hDV67srZj+DwusOkn+CDAryoRa7RjY1rNQegjd/uCwzx1bMfgaFzNwrBXMZFOSFIuwY1ggammGqrouPfpXdGO4K2c+gkMKTJzMbXAHF+bndDHM9qqLPKokOVdIm4OtW1RBaoyOmHLWYOqr3li4ds7uG6Keah72LZdkSaqPwgP0MCpk9pFIw1xwUycnJyMjIKPXS6Ww9NEWIG9HEUFwPwovRxyHJnkXtLoxsFgCVSoPH+/6Es1aMzIsfjYhgASohGOEj4yCpFgoX7ddqtaX8Sf5dsmSJ2HBLjbfh4eFSuA0dtkHl8JF8oFsVMAeFcRCS+fuVK1dM6WlzL+BMykHs3rYOMWN74plQQ+AalQrqWu0waPIy/BafhJTT6cjJt/JEmq7kxQ+mB42qFdXQ6oPZ+P3QOeQWFuDS2YP4fd5QdHhYA0EIxpNvz8VBSVGCmk+MoHPO/k2bNpmgYO5X42cGhRfvRTkntWbNGqxevdrmq7jYWFzXIuGr5oYShCFgDdXprb6C0GHKCWmUMHRXcWTDDIwc0B2tn6yOQOEO3Mh2QX0/6rX5D0Yu2o0sibCt1P3kov05OTk2fUt+3759e6nkpP6FSxRS95Cf2Fd0+SyOJu5GfGws4vcm48xFeTVcyt1+V28jBoWrCvL5rIACFGBQKMDJnEVWwFUFGBSuKsjnswIKUIBBoQAncxZZAVcVYFC4qiCfzwooQAEGhQKczFlkBVxVgEHhqoJ8PiugAAUYFApwMmeRFXBVAQaFqwry+ayAAhRgUCjAyZxFVsBVBRgUrirI57MCClCAQaEAJ3MWWQFXFWBQuKogn88KKEABBoUCnMxZZAVcVYBB4aqCfD4roAAFGBQKcDJnkRVwVQEGhasK8vmsgAIU+H9qZedX5o2vbwAAAABJRU5ErkJggg==;" vertex="1" parent="1">
          <mxGeometry x="340" y="127" width="266" height="229" as="geometry" />
        </mxCell>
        <mxCell id="URKf0z_btjTz6VOf-sqR-4" value="" style="shape=image;verticalLabelPosition=bottom;labelBackgroundColor=default;verticalAlign=top;aspect=fixed;imageAspect=0;image=data:image/png,iVBORw0KGgoAAAANSUhEUgAAAfQAAAD5CAYAAADRP8fgAAAgAElEQVR4Ae2dCXgUxdb+4xhjvkRA8ANRtqugKHhdQUTBy6ciLiggIOJfQHEBFUwIyxUUUERkl0VWWQREEwRZBBRBSEhIwhYgLAn7vkNCgIQYBt//czrpoTNbJjM9Sc/M28/TT/f0dFdX/apn3q5Tp04FgQsJkAAJkAAJkIDPEwjy+RKwACRAAiRAAiRAAqCg8yEgARIgARIgAT8gQEH3g0pkEUiABEiABEiAgs5ngARIgARIgAT8gAAF3Q8qkUUgARIgARIgAQo6nwESIAESIAES8AMCFHQ/qEQWgQRIgARIgAQo6HwGSIAESIAESMAPCFDQ/aASWQQSIAESIAESoKDzGSABEiABEiABPyBAQfeDSmQRSIAESIAESICCzmeABEiABEiABPyAAAXdDyqRRSABEiABEiABCjqfARIgARIgARLwAwIUdD+oRBaBBEiABEiABCjofAZIgARIgARIwA8I6C7oWVlZeOSRR7y+1q9fXxf8o0aN8npehcfkyZM9zu+rr75aInlNS0vzKK+pqaklks/WrVt7lE+5eMCAASWS1+joaI/zygRIgARIwBkB3QU9IyMDQUFBylqtWjV4Y5X0TSaTs3K5/F1UVJRX86uy+OKLL1zOk6MTa9as6XWukt+UlBRHWXDpeHJysleZyjMl+axTp45L+XF2UqdOnZS0ypYt67VnVfI6fvx4Z9ngdyRAAiTgMQGvCfo777zjceYcJfDSSy/hpptucvR1sY6rgr5v375iXefqySKO8oeuh6DXqlULdevWdfXWxT5P8qinoA8ZMqTYeXD1gnvuuUdXQc/MzHT11sU6b+XKlQpTCnqxsPFkEiABNwhQ0Ata6BR0KC8dFHQ3fkVOLqGgO4HDr0iABHQlQEGnoFseKLbQLSh026Gg64aSCZEACRRBgIJOQbc8IhR0CwrddooS9KtXr+LatWu63Y8JkQAJBC4BCjoF3fL0U9AtKHTbcSboGzduhDjj1a5dG8uXL9ftnkyIBEggMAlQ0Cnoliefgm5BoduOM0GPiYlRHObEb0HWl19+GXv27NHt3kyIBEggsAhQ0Cnolieegm5BoduOM0E3m80YOnQobrnlFouwh4SEoHfv3rh48aJueWBCJEACgUGAgk5BtzzpFHQLCt12nAm6epPjx4/jrbfewg033GAR9sqVK+OHH37AP//8o57GLQmQAAk4JUBBp6BbHhAKugWFbjuuCLp6s8TERNSrV88i6mKGb9CgAdavX6+ewi0JkAAJOCTgtqAfOHAAO3futFnlT0n+iLwdWCY4ONjm3vbyU9QxNVKYt8ehf/TRRx7nt3r16iUSWGb+/Pke5fXnn39WngFvB5aRyHlF1W9R37do0ULJq7cDy/Tr18+lvG7fvh1qsCO1b10V9pMnTzr8IfMLEiABEnBb0K1bEto/n5IQdOv7efrZ24Luaf7U60siUpx6L0+33hZ0T/Onvd7bgq69l7v7ZcqUwfDhw/H333/zn4sESIAEbAhQ0As8jCno1yPFuSs41tdR0AHV5G7Nxt3Pb7zxBthSt/kf4wESIAEAbgu6jJudPXu2zTpp0qQSMbnfeOONNve2l5+ijr3wwgtKfr0t6K1atfI4v5UqVSoRk/ugQYM8yuvAgQNLxOR+5513epRPeTYaNWpUIib3Dh06uJzXiIgIJU/Wor927Vr+aZEACZCAQwJuC7qjFNXZ1rzdh87JWRzVgPvH6RTnPjtHV6otdFcmZzlz5gzee+89ZSZBVcz/93//F1OmTGE0OUeAeZwESMBCgIJOL3fLw0BBt6DQbccVQZfwr6NHj0a5cuUsLXNx+vzkk0/grb593QrIhEiABAxDgIJOQbc8jBR0CwrddooS9D///BP333+/RcilZf7cc89hx44duuWBCZEACQQGAQo6Bd3ypFPQLSh023Em6KtWrSok5HfddRd+/fVX3e7NhEiABAKLAAWdgm554inoFhS67TgT9KVLlyqCHhYWhq+++gpXrlzR7b5MiARIIPAIUNAp6JannoJuQaHbjjNBl5vs2rWLw9B0o82E3CUg4Yf/+usviFOznou8pMoIooMHDyInJ0eXpCUOg/iWXLp0ic6iVkQp6BR0yyNBQbeg0G2nKEHX7UZMiATcIHD48GHL0E3x3xBnzG+++cbjOQRkDoLNmzfjp59+sqzz5s2DvDi4u1y7dg1Hjx7F7t27Lev+/fuRm5vrbpJ+dx0FnYJueagp6BYUuu1Q0HVDyYR0JnDixAnUqlWrkB+HOlyyf//+bt9NxHzLli0WIdeKuoSFPn36dLHTtifmqrDv3bsXeXl5xU7THy+goFPQLc81Bd2CQrcdCrpuKJmQjgQk5kGdOnUsYv7KK69g4sSJkFn+RNQlcJfMg+DOIvMRqCK+cOFCpVUtoitiLsclKJkItKuLvCBIy14V8EOHDiE7OxtSBvUYoyfm0/SaoMtD0bJlS6+skrbJZHL1eXB6njoRxr///W+v5LVGjRrKD0TE0tNFJiPxNldJPyUlxaOsJicnW/4ovPkMyB+Sp4s6OU+TJk28Uv8Sf12YuhJYxtOy8HoScIVAVlYWHn74YctvVKIYqgIrM/vJ8ypr8+bNXUmu0Dnp6ekWMZcRG3Ivddm6davlOzGVu7KImItYq8ItYm42my2Xak3wdCr1IPSrhajVjhopTn0ovLXVO1Kct/KppquHoDsyj6n30Gurp6DrlSd76egp6PbS1/MYBd3qj4IfS43ABx98YBHttm3bQgIbaZe33nrL8r04yrm6iHhHR0croi0zNloHRRKz+IIFC5TvpeVufV9797l48aJFzMWxTivmcr70n6tif+TIEY/7/u3lwZeO6d5Clzeqklr1AF1SeZX7eLr4Sl59JZ9SH76UV0+fH15PArGxsRaxfvLJJ+3O3CeOcjfffLNynsx14MoivyMJkqSa2k+dOmX3sj179ljOkX1ni4i3eMiLYDvrJ9e24AO9la67oDurIH5HAiRAAiRQmMDZs2cVwRIhFXHSa3iXiNuxY8eUVRzgpAX7wAMPKEIdEhKCtLS0whnRfOrWrZtF+EVM1UWGjMlwMVkvX76s9GWLmGuFWsz2jhYx7YspXoR/xYoVjk5TjmuF2rq1r71QWv5qK93Ri4T2fH/ep6D7c+2ybCRAAoYkIAI1duxYSCv5hhtusIindPNIoCExi4uneHEXadUeOHBAmbZXbS1rtzNmzEDnzp0xbNgwp0nLkDO1y0mCHklXqpi8VeHUbkXwZSbAX375RRFrEX1ni3Y4m7aPXXuNOL2p93DFlC7nyPmSF9UfQJteoOxT0AOlpllOEiCBUicgrXGZdOd//ud/LIKpCqe9bdOmTV0auy0iJoKm9lFrRdzRflJSksN+bGl1P/744+jZsyfEa10VV2dbcYiTlwm51tkiLwdqnsRRznqRskg6ci9p+Rf1giDXX7hwwZJH6XcP1IWCHqg1z3KTAAmUGAExfw8fPrzQjHoi4FWqVIGYtydPnowJEyYo58jkPFpxlyl0//jjD7t5FfEUT+/ffvvNIpIiltJa3rBhg2JuF9N1q1at8NRTT6Ffv36FzpPwwyKG2kXSFAtCamqqRSRFXMUzXV5IpPWsrnJMLAlaoZf8FOXwJkPXJJ/iHGfdotYORzt37pw2aw73JQ0Rf8mHdDME6kJBD9SaZ7lJgARKhID0Gf/rX/8qJNJial+8eLFD4RNxateuXaFrvv3220L5lZaoeKGrrV1VIMWRTCuoEvlNfUGIjIxUBFz6r9XrJIKbGuxFhFptHasiLaI7ePBgm5a3nKtaBESgVQc2VfydBXuR/nv1/vLCoS7iP6DeV4aoFdXaV6+TrfgJqNdqy689x9/3Kej+XsMsHwmQQKkQkP7hjh07WsRURPXuu+9WWs+uCJWcM3XqVISGhlrSGDp0qCJyIp4xMTEWUZR9mXLXWsji4+OVIDFyb4mJIc5sskiLVoanqqIqom7dRy6t7wEDBih9/LfccoviBKeClOslaJJ6veRH+u+ldayKqlzvyFwuFgs10ExiYqKSrFwv16jXF9djXZz01Gv1jkmvltvoWwq60WuI+SMBEvA5AiKk2lZ52bJlMWrUKLfijovX+K233qqIugQqEpFXhVS20hduzzNeTNdi0hcxlxjtcp71IkIsFgRrs7mYukW0ZVy52rqfPXu25XJtkJiEhARLS1peQsTTXBVWZ6IuQ+gk//IyIsKvDRJz/vx5y71c3ZF7qy8E0roPxIWCHoi1zjKTAAl4hYCYmT/77DMlkqUqhI0bN4anAiOtaekDl/CsqphL8BYRQXuLiHGzZs0sYiwvE9aLCKD0laviK1sRajG5q4u0ksuVK6ekI1EfZZEwrGoepO/e2rQu6YoJX01XXhrstbZlmJ6ajtbML618ScOdRdv/bp0vd9LztWso6L5WY8wvCZCAIQmIgNWrV88iourMZWJK9mQRM/qmTZss4ici2Lt3b7Rv395iQtemL2Iozm/qC0WLFi1sBFLS1JrHJe9iVVDN4Nu2bbNc07p1ayUtsTKIYMqLhORBWu+OTNuSB624ik+A9RA1aZXL/aT/XTzkJQ/SwvaEl/Trqy8S1s5+Wkb+uk9B99eaZblIgARKjICYo2X8uCqitWvXVqYP9TQD0ue9bNkyi5iLAL7xxhuW+zz44IPK2Gv1PtISltjsaj7E7G8tuiJ60mpWhU/2pf9ZWvvafnkZWy7HxQNf0mvQoIFF8EXQ5Tpni4i6mM7V+8hWRF4VbPle5n3Qfm+v68DZPay/kzRVb3dxkgu0hYIeaDXO8pIACehGQEzb2tawCN9HH32kDOvy9CYifqoXuQjo77//rnioy9Cxp59+2iLaMlGVDHX78MMPFac7VczvuOMOxYSuzYd2vLYIqbTSVYGV88QEL973cj91lc8SiEb9LFtxwBPxdGWRlxJVZFXxFnO72t8tx8TrXcqlx6JaHuSFw9U86nFfI6RBQTdCLTAPJEACPkdAWrpt2rSxCKuYpKVPWY9FPM7ViU5EQGVMuVZ4xVz9/vvvW+6tiri6rV+/fqGANCJsIpiqoMpWWu72BE9a+VoPdq2Qz5o1SwkhW9wyyiQq2n5ybT4kcI0MjSuqxe/qPaVcavr2+u5dTccXz6Og+2KtMc8kQAKlSkDGTotoqgIqpm1ptXq6iMBKQBetiEr/sj3hlWNxcXF47733FMc1ic8u00APHDiwkNe7WBG084lLeFQxpTtbJG2xEMiLhLykTJo0SRkXX7VqVbgbiU3SlNa65EXEXcK1ije9GttdvOX1WLQzsLnjLa9HHkorDQp6aZHnfUmABHySgDiMVa9e3SLmDRs2tARm8aRA0gJft26dRcxlbLiYj11ZxMnNnujLcTFvqy1WMXOL4BV3EUc49eVlyZIlxb3c6fnq8DW5h70yOL3YzpeShrT2pcyORgHYucwvDlHQ/aIaWQgSIIGSICAOahJkRRU38TTXw6wraWijty1atMjGma245RPh1vZTi7CLwLuziBlb+uql3N27d3cnCYfXiAVCtUjo1aJWZ2qTvnuxUATKQkEPlJpmOUmABNwmIK0+mR1NFTURti+++EKXFqU4qmkd0SRuu6fe3taOaOLx7amwyWQtUu777rvPbY72LpThbKqg79y5094pxT4maapWiaK6F4qduIEvoKAbuHKYNRIggdInIK1a8VxXW+U333yzIkB65EyEVkzrqqDJWHB3W9FqfrROYSJq4gynhylbAuaoDPQ0ZUvexClOGEhsej0WYagKuvgCBMpCQQ+UmmY5SYAEik1AWs/aiGsVK1ZU+rmLnZCdC8QcrAZyETGTKG2eCK9cqw27KoJmHczFTjZcPiR93aqgy7zqei4SllYYiGe/py80ar7U2PSeRulT0/OFLQXdF2qJeSQBEihxAiKODz/8sEXE6tSpUygsqrsZEuHVerKLqGvDrbqTrrUnuziFeWq2t86HDJULDw9XeIjvgJ6LiK9qpdArIIw2/KxeLwl6ltkbaVHQvUGVaZIACfg0AWnV3XPPPRYxb9q0qc284e4UUMRcG8ZV5i1Xpy51Jz25RsRcTOCqiVleDrwVx/yll15SmIilwtM+eW15xSlQFXSJW6/HIn3nKhM9LRV65M1baVDQvUWW6ZIACfgkgV27dkHGW6vmZZmXXFqnni4igDJVqCpcMv5aIrN5sshQN+2wNHkR0Qag8SRte9fKnOwqF5mhTc9FYroLG9nqsQhvVdC1c67rkbZR06CgG7VmmC8SIIESJ7Bx40bcdtttFtHq2rWrLgIpJl91vLWIlni1iye6J4ukqfYTi3BJoBZvirnkVYLnqII+fPhwT7Jvc612fna9uguEibCR4Xue+CfYZNagByjoBq0YZosESKBkCaxevbrQGHOJ0a6HCIj5WxtKVcayeypYYjHQjjGXADR6msAdkRced955pyLq0g2h5yJ956r1Ql5U9FgkEp3aStfDyqJHnryZBgXdm3SZNgmQgE8QkEAuMhxNbX2OHDlSl3xL37BMqqIKlQSPcSdSmzYzcr0aCU3ESszJerx4aO/hbL9jx44Kp9DQUF2C6qj3EouDGr9evN71WIS/KugynM/fFwq6v9cwy0cCJOCUgEw4cuONNyoiJYFjpk+f7vR8V78UpyyJg66KuVgAPPW2lpa9xGJXRUoc6kpSzKXsc+bMsbz4iOVBz0XGoQsvGZeuR7kkDZWXq2F09SxPSadFQS9p4rwfCZCAYQiMGTPGIk4yuYlMV6rHIl7V0upXxVwCxnjavy0vCNppSMWcrIfoFbe8YhFQLRl9+vQp7uVOz5dIcSoziQGgx6JOTCPsSoOXHmVwNQ0KuqukeB4JkIDfEJA/9gEDBliEScZX69XalHjk2nnMk5OTPe7flhnO1Fa5bEvbfCyzuomoP/LII7o+E8JOFXSJ8a7HIiMJVHae+i7okR9vpkFB9yZdpk0CJGA4AuI8JhOMqK3M8uXLQ0RXj0VM4NpQrjK0y9NWoVaQRJiMMKY6KirKwk/P0KrCSmZdE1GXUQF6LOKUqAq6WDVKe5GhhU8++STatGmjODbqmR8Kup40mRYJkIChCUgfdqdOnSxiJB7besxjLoUWL+2YmBhLC1OPiUa0cdnFZOzpUDe9Kkcc/dQXInFk03ORedFF0OXFSC/PfQm2I6IuY/ZLexGfDZWdOGLKaAq9JpChoJd27fL+JEACJUJAhi21bdvW8md69913exxyVc24RGpTPbRFjMQRy5NFWqraIVci5tnZ2Z4kqeu1IkDicyDC9O677+qatnjwq2Z3vVr/2hj3nvoyeFpY6T554403LM+hMKxSpQrmzp3radKgoHuMkAmQAAkYnYAMX2revLnlT/T++++HOEvpsciYaXWSFdl6OoZaxFyETDUTy8uBEft+mzRpovCsXr26x90K2nqQlwVV0CXmvR6L1gfBKFaOuLi4QnMFiLA3atQInoS+paDr8bQwDRIgAcMSkD/wZ555xiLmMuGKXi0/bWtSWugSmcyTRcRcO6mIpO/puHVP8uPs2q+//trCVCwIei5LlixRRP3PP//UJVlplasvSJ7GztclQwWJSJfCpEmTCkUnlKGT77//vlvPKAVdz9phWiRAAroREJNzZGSkR6vMYy7mTLXP8oknnlDip0urV8aFe7JKxDe1JSliLv20Ynr3ZNVGf5N9I0c3W79+vYWrTDErfcGerPLyoi4bNmywsBXnOGnNurtKOF9Z1Jj38vIhY9I9WfUeZSDpdevWzRIPQZ7XW2+9FRI7vzixCyjo6hPELQmQQJEExDv3pptuKpE1ODjYIhiqIHuyveGGGyBpSv5lK8Fk9FolPW+sJcXanftIeT2pD+trpS7UfOhdP2qd61lHal713Fozkc8yba+rlgoKepF/YTyBBEhAJVC/fn1d/8Tt/YHxWBAZB5GB9ndQt25dyHC3ohYKelGE+D0JkICFgJgAe/TowZUMLM9AREQE9FileyWQny3tcEqtmI8bN85lszsF3fJX5fqOBHYYP3483nvvPUjow+3bt7t+Mc8kARIgARIggQIC4rD33XffoUKFChbLjDjGdenSBWfPni0WJwp6sXABEiyiYsWKFvDqm9TgwYOVoSXiUSsxiMXJQcIYSoWIR614VspYSImDbG+V7+QcOV+ulZcGSUs8XMXzVRY5Ji0k8diVISNDhw5V7lHMIvB0EiABEiABAxBYs2YN1DC6qpY0btwYEmHQnYWC7iI1GV4g4yNr1KhhI+ZqRcycOdMyNEIdIqHHVrwyZWzifffdZ3PvmjVr6jae1kUUPI0ESIAESMADAtIfLqFfVe2QbdWqVZV4Bh4ky8Ay9uBJi1gCOUhLWcI5qmEDZVpFbQVY78vQDT0E3F4a1pWvvfdrr71mrxg8RgIkQAIkYDACW7duRVhYmEVLZF75/v376xIJkC10QDFpi4DLuFcZQyotYnui+tVXX1kqQSuo6v6DDz6oRImS4BIyxlEiUYl5XTWni+ldTOr2VtUsL+fLtTJmUn2RkFjTaphF9V7arfS3yDli6tcr9rHBfgPMDgmQAAn4BQEJ8ar+f0tjzNPIglooASvoInwSDlBa4BJkwp6AWx8Tk7paEfa27dq107LVZV+sBfJCYO9+2mMSfEHyK2WRFxMKuy74mQgJkAAJ6EpA/pslRLAEytF7CShBF29CacVKC9harK0/SytdWtrSchbhl4hNcv0999xjI64SsELEVa/p/qwrWR6AatWqQb2PVshlv1y5coqnvbYMIuwy7aLqUGedJj+TAAmQAAn4FwG/F3QRQ/EOd0XERcCldSvmd0ctXBH6O+64w0bUx4wZ49UnQ8YiWgu5+nnAgAFKK95eV4GUqTihA71aCCZOAiRAAiTgNQJ+K+gyu5IMA3NmTpfvpM9ahoc5EnB75GUaw2nTpqF79+4YOHCgx1Ml2ruH9TFpafft2xfSX64KuWwlD2rexYIg/fPWwi4xoY06wYN1OfmZBEiABEjAPQJ+JegibGJmliEBWvOzdl8mAJA+aRFlXzRHi9Pe1KlTMXnyZIdzOefl5SkOedpyy8sLRd29HwmvIgESIAFfIOAXgi5C5aw1Li1WaYn7qoi7+yDJsDutqEtLneZ3d2nyOhIgARIwNgHDC7qYkcWtX7zRtYu0rsVZTZ0STytc6r58F+hDuYSRykO20qfui5YJbd1znwRIgARIwJaAoQX9xx9/xL/+9S9Ln7HMZbxu3Tol3Kl23mCtYIlpWVrrRp5H2LYavHtEuiG0jMTxjwsJkAAJkIB/ETCsoP/www+KkFsP1ZKoOgsXLiwkUCJW0m8e6K1xZ4+m+A1oRZ0vPM5o8TsSIAES8D0ChhR0ceqqXLmyw3HXzz33nEWcxBQvHu1cnBMQh0GtVcO6C8P51fyWBEiABEjA6AQMKeibNm2ymNm1Q7TUfQmDKmZjOngV7/Gy7k+XFycuJEACJEAC/kHAUIIuZmDp/16yZIlTQZfA9lyKT0Cc4dT48GJ+lyh4XEiABEiABPyDgCEEXYaTyUQmah/vrl27UKVKFYei/uabb/oH/VIohdZBTsbk0+O9FCqBtyQBEiABLxAoNUGXPl1xYnMUBGbChAk2UdHE5F6hQgWkp6d7AUVgJCnDANUXJ9nKyxQXEiABEiAB3ydQ4oIucdLF49pRSFYxCUsrUgR/+fLlePzxxy3e7i1btsTOnTt9n3opl0Ab117qggsJkAAJkIDvEygRQZdIbhJjXNt/q20lyr4EPJGY6vZMwNKK5DAr/R42rdldPN+5kAAJkAAJ+D4Brwi6tK5FnMXBTTtUylrEJSSrtBAZY7xkHyTxbtfWBfmXLH/ejQRIgAS8QUAXQZdWtZjSZSiZtLS1YmFvXyYYYRAYb1Sn62lqX7SkLrgYk4A4Lo4aNQpDhw7Fxo0bjZlJ5ooESMAQBGwEXcQ5MTER3bp1Q8eOHTF+/HhlPnFtbsWxSlrgYkYXAbeertOeiEtc9fPnz3PsuBZkKe7LZDVqPck+F2MRkN9hnz59bEZ6vPbaa4W6n+Q86Y6SbqniTgNsrBIzNyRAAp4SKCToYirv0aOHzZ+IRG2TYC8SXcxZP7gqELIVpzcZiiatPwaA8bSa9L9e248uIw24GIvApEmTbH6HamCld999F+LYaO+3KC/OXEiABAKTgCLo8pYvfxCjR492+CdSu3ZtZbiYVrS1+9JKl9a6mN3F/C5pcjEuAQmXu3r1anz00Ud49dVX0bdvX8Xfwbg5DpycyYt1zZo1HYY+lkiJmzdvtlhYrH+H/O0FzrPCkpKAloAi6PLnLn8KDRo0cCjo0jqYN2+e5U9E+vbkJUDM6CLg8ifExXcILF68GDfeeGOh+jaZTIiJifGdQvhRTuU3KC/D0sJOS0srVC9qy1y7/e233yy/RXmZFp8IuZZxBfzooWBRSKCYBCwtdGld16hRw+kfyfTp05U5yBkDvJiUDXa69JnfdNNNNi1AmdlORJ0m+JKpMPkdiYjbM53feuutTn+LIvqXL18Gf4slU1e8Cwn4AoFCfehNmzZ1+ieyZcsWXygT81gEgWHDhjmt54EDBxaRAr/2hIC0xrWhjrUmc3X/gw8+cFhHr7zyiie357UkQAJ+SqCQoIsZT2vW0+43bNjQTxEEXrE++eQTh/UsdS5OV1z0JyDe6Noofap4q1v5TpwVVa/1Jk2a2NRTrVq1lJcB/XPHFEmABHydQCFBl8J88803Nn8i4hDH+bN9vaqv53/s2LE2dax9eRsyZMj1k7nnMQHxL5EgS6pwa7fSvSEiLkNBrRcR9rlz56J169aK4+K4ceNshpBaX8PPJEACgUvARtAFhTjZDBo0CL169VKcpNhP518PSEZGBsLDw+32od98881K9D7/KnHplUYcRu31kUtwJfmOCwmQAAnoRcCuoOuVONMxLoGEhATccssthVrqoaGhWLVqlXEz7WM5k4HlbYUAACAASURBVBcnbWtc9qVFTk90H6tIZpcEfIQABd1HKsob2ZSgPyNHjkTnzp3x+eefIyUlxRu3Cbg0xcRu7fQmVi8ReI4RD7jHgQUmgRIjQEEvMdTGvJH1/Ojigc3FfQLS721tYj948CAnIHIfKa8kARJwkQAF3UVQ/nya1vNanLe4uEdAYqlLS1xrZhdnUgZdco8nryIBEigeAQp68Xj55dkXL160iJAIkj2Pa78suI6FkoiJWiGXfTGxcyEBEiCBkiJAQS8p0ga+j/TraqdTlehlXFwjIOxOnTpVSMwlLDI92F3jx7NIgAT0I0BB14+lT6ek9ciWmfLYSretThHv+Ph4JVaDjOUXj3Vtd4Xqxc5hnrbseIQESMD7BCjo3mfsE3eQfl5tK5196YWrTfrHn3322ULD/CTuvcRqUE3tMrac/eWFufETCZBAyRGgoJcca8PfSYaxqeIkW5qNr1dZu3btCom5NrKeRHATszuHpF3nxT0SIIGSJ0BBL3nmhr2jCJJMwamKugy/YosTkJa3zESnFXHtvkw7zIUESIAESpsABb20a8Bg98/NzS009Iox/IHVq1c7FHMR9vLlyxusFpkdEiCBQCRAQQ/EWi+izNZDsORzoC5itUhMTHQo6NJyv//++wMVD8tNAiRgIAIUdANVhpGyYh26VGYEC7RFrBVqF8SDDz7oUNRHjRoVaGhYXhIgAQMSoKAbsFKMkCXpO5eQpWp/umwDRdRlyJ71dKd//vknKlWqZCPqLVu2BIepGeGJZR5IgAQo6HwGHBK4evWqTVzyM2fO+K03t5jXZTy+BIbRvsjIvgi8lH3YsGFo3rw5Xn/9dSxYsADCiAsJkAAJGIEABd0ItWDgPNgT9SNHjkAmIfGXRYQ8KyvL5uVFhFyCx3D4nr/UNMtBAv5NgILu3/WrS+nEBC0irm21Ssx3cZYTMfTVRboVZOy99exoUk5ppUsXgy+Xz1frhfkmARJwjwAF3T1uAXeVCJt1zHIRPhFDad1qhU/EftmyZcr86trjRoEmfd5nz561a1qXvMt3DH1rlNpiPkiABFwlQEF3lRTPUwhcvny5UIhYtdUuYWNlfeGFFwo5jj366KPKuHZv45MXixkzZmDOnDmKIFvfT1rjMqucdex1Nf8i5NJPzj5xa3L8TAIk4CsEKOi+UlMGyqeIo8zIJiKoCmJaWhocDe264447vDaVqLSku3TpUuglIiQkBCNHjlSi3ImIS3AcmXBGzat2K6Z1KQuF3EAPGLNCAiTgFgEKulvYeJEQEBEUM7wI+/Tp0wuJqjY0quwPGTLEK2FkP/30U4f3FVHXird2X5zdpP/ciF0CfLpIgARIwB0CFHR3qPGaQgRE2Pv06eNQWEXQmzVrpoirmMYlaI30U0vfe3Z2tuIxX9w+axFiaVmHh4c7vO+9995bSNClNS5m9StXrhTKPz+QAAmQgD8QoKD7Qy0aoAzSGrZulWs/SwAWbQvZ0b6IrvTFS1AbaUVLpDZ1lc/yQqCaz5csWeL0nnJ/sR6IFUFeHNgaN8CDwiyQAAl4jQAF3WtoAythEVtnM5LNnDnTJUF3JPT2jsfFxTkV9HLlylHEA+sxZGlJIKAJUNADuvr1LbxEUdO2ylWB79ixo9J/LqZ58ZKXaGzSapZpSbUtbnui7eyYtL4bNmxY6J7a+0dEROhbQKZGAiRAAgYmQEE3cOX4YtYWLVqEJk2aQDzbH3vsMUyePNmlMd1iDpd+dIlAJ33cEp1NzOTaVY7Jd3KO2ucuoi73EiFXXyBkX+4tLw5cSIAESCBQCFDQA6Wm/bicMiytf//+Smv96aefxpgxY5Qx535cZBaNBEiABGwIUNBtkPAACZAACZAACfgeAQq679UZc0wCJEACJEACNgQo6DZIeIAESIAESIAEfI8ABd336ow5JgESIAESIAEbAhR0GyQ8QAIkQAIkQAK+R4CC7nt1xhyTAAmQAAmQgA0BCroNEh4gARIgARIgAd8jQEH3vTpjjkmABEiABEjAhgAF3QYJD5AACZAACZCA7xGgoPtenTHHJEACJEACJGBDgIJug4QHSIAESIAESMD3CFDQfa/OmGMSIAESIAESsCFAQbdBwgMkQAIkQAIk4HsEKOi+V2fMMQmQAAmQAAnYEKCg2yDhARIgARIgARLwPQIUdN+rM+aYBEiABEiABGwIUNBtkPAACZAACZAACfgeAQq679UZc0wCJEACJEACNgQo6DZIeIAESIAESIAEfI8ABd336ow5JgESIAESIAEbAhR0GyQ8QAIkQAIkQAK+R4CCbrg6u4q0HScQk3zchfUUks/9Y7gS6J6hq5exdr0rPDTnrD+LtBzdc8IESYAESMCwBCjoRquaa9mYOC4OQRFril4j1+GTrVeNVgL985NzDG/1dIGHllnPFEw+GwAvO/rTZookQAI+SoCCbriKM2P/3jP4Y9tpF9az2JYZAKJ1NQebUl3hoTknNQP7cw1XucwQCZAACXiNAAXda2iZMAmQAAmQAAmUHAEKesmx5p1IgARIgARIwGsEKOheQ6tHwmakbjyAob/tw/D48zinR5I+mIY5IwuxO85g5XY7646zWL3rPBIPXMShS2YfLB2zTAIkQAL6EKCg68PRK6nkHT+Elv+NVZzjwkbsx7Y8r9zG8Ilmph9CtzGJKBPp3DHO1GMtag/fhv7xmThzzfDFYgZJgARIQFcCFHRdceqY2LUczJuxDiEFntuhg3cj/m8d09c1qRwc3ZaA+PgEbDvqpbFimUfwes/8l5uQATsx73g2Dp3NwZGz2dh7JAN/rNuH94fGI1h4Ra7Fs0vOI0vXMjIxEiABEjA2AQq6QesnY0caHo2KRfXP8kUq+POdWHbFoJk1H8HUVmUQFFQGLacchlcM35lH0EYZuhaL2yYfxSl7KLJOo8egfNE3/XcrZmcEwAgAexx4jARIICAJUNCNWO1/Z2LYyDiEfrETUxZvQnjEGph6pyI624iZBVACgp6Tvhv1osTkHosmv12A/RFpZvz5U2K+VSMqCX13eeXVwqCVwGyRAAkEOgEKuuGegGvYs2YLqvSIxxtxl7Bn5WaUETNyzxRMNWpUOK8L+j84vDoF5aQP3WkwHTNWRycVCHoyBuymoBvu8WaGSIAEvEbA0IKeuTsW83+Ygu9/XoM9F+0xyEDaX79g1vSZiF57wEGrzd51xj1mzjiJrgNiUW7EPmz6+x8cWZ2SL+hRGzHySNGeXqXCzOuCfhVLZiUo/eOmXlsw3ZEp/Vo2Jo+PgyliDYL7pmKe3WfmIvYn/IofpkzGD0u34Ywjzc89jh3JiUhMTMKWA5nGfWCYMxIgARIoIGBQQc/Epkkd8GB5E4KCghBkCsE9neZgn9bL++JWTH/7IZQzBSEoKAR1e62EUS3Srj9teYj9JRnhUUnomZrvAXdm7VaUlRZ6VFEtzlJk5m1Bz8vEV98UePsP3YuN2udAA/fi3r34jzjORcbisXlnbZzizEdWYtjrDxQ8M/JcVUKz0Sl2XwRzEgagfqicUx5tph31jl+AJu/cJQESIAFPCRhQ0PNwIPpd1KncEB+MnomxXeqjrCkIprD/4JuUgp5T80Es+PAhhJvCUbl6ZYQHV8RbP54uHou8vfgxsiWaN2/u4doSEXP2wIHGFCtPuYf2o1nvWNw19RgOFTTGLyanoqKYmnusQ8Q2R83JEmLmqDReFnTzucN4rZcIeizunn0K9hremYePostX0jqPRZXR+7DW6qTcffPxyRO3456X+2Di7LHo/FCo8rIY/txI7LCpPDMOTGqhPHdBYU9jyGb7PfaOcPA4CZAACZQGAeMJet4+/PxhM7wzc7fScjIfmY62t5kQZCqDl8fvRR5ykDqxFaqFVsNLQ2Jx8tJWzP92Kv485EjsHGDN3Yph/xeWbwEQK4DbaxiaDN1it5Xn4M72D1+7jB8mJyCk9yZ8e/h6WS6l7ERNpe94Ld5JdjARS0kxs59zrzvFXVQZRMThuUVnsPngBaQcvIANu8/i9/VHMPynLXikTyxMPdfhxehj2HLZOqN52B/dFS++PQ3bFKG/iHnvVIQpKAhhzwzHNhu9zsLCLtURHBSEkNoR+OOSdXr8TAJ+QMB8CFu3LsOaFA/WLWuQnnX9/8oPqPh0EYwn6NY489Ix9oVwBAUFo8aHi3EqaQieq1gBT/VdgZMePUdZ2Jv8F1auXOnh+heS9nrax/oPTm3eiTo9YlHvl7PQppa9Mx0P9RDv7ji0iXVx3JrXmFlXTsFnr7bQzdi4eD3CCsbj25+FLhYVh6Vh/nGbprb9DOelYUwzeaZMqPjWXNsIfDlJGNhAWvAm3NZ+Nk7aT4VHScC3CVxZgm++rofWgzxYv3oN3+918X/Jt2n5RO6NL+jIQfzn9RAqrakn3kSHBuVR843vscNL8UtKpdZyzmPgN3EI6b8d884XHjudu28vnlKGa8Wh2e8XXTTt68wsbz/m9euIN99808HaFk/fHaL4MtzduK2Dc+TajugXs8/FMhTUxLUcTJtQ4Oj2+XbMOpiF1MOyXsCG9DOIWZmO1wethSkyFlWGp2GBK29556LxdmXxzwjDM8O32VhXzIemoGVZ+T4cz45ILV5+S+UB4k1JwA0C5uNIT4vD+l2erOtxgCGX3YDvnUt8QNCBzAXvo2qwmMVNKFu/F5af8Khp7h2SbqdqxvYVm1Exci1eXWkr2HnHDqBZwfjrJxZmwNX3GF2ZlWb3xJVT6P55fv95+YlHcNyOo7/5/El8+EX+ORW/PYCtRTTUs1f2Qp2QIASFPIRP19i6Ul5c/CHukuctpC56rbT93u2q5oUkQAIk4EUCPiHoeXvG4aVw8Tguh9dn+pcB1HzmGDp8lu/Bbd+crMYvj8X9P51x2ZNfX2bnkbriF8TExDhYZyCykfgjhKFRxHQH58i1v+CPbeeK5TGee2AvGhe80DRanGnTms7/bWjHnyehX5qzF75cpAx5GmFBQQiu0QULtf0bSmI5WDfgccUiZKrUAXPPePHXx6RJgARIQEcCPiHolzYPR9NyYgINRb3+CS63Up1yMh/G0hFRiIiI8HCNwojfDhVLpK7nKxfL5yYhNDIBry05gUWbTtqu63ejmRLDPBaVZ5yw6+F9Pb3re15hdj35wnte60P/B8djt6C84hSYgI82O3AKhBkb1H72yDh0THTSRDcfwpRW5WAKMqHC6zNw1Fr7czdjyNP5zpLhzcYgzUlShSHwEwn4HgHzhTRsSU/ApkLrOqQcO13oPy3n3DZsLnROwTV703HejtXM90j4R44NL+jmk3+gd4MKuO228sqfcNmWk3HQ+k/YnbooTTNyQX4v7d2Lxj1jUWH0fsdm4isn0bVvfgu+7KQjcGVwnteYOeLsNUG/imVz1hUElEnB1LOF/QuuZ+cqls7ODzwTFJmAbimOhB9AxgK8Xy04v/98RKpNiz9jRU88KOb4oFA83DdWn5fH6xnlHgkYisCl/T9h7PTmaGdxjKuPN77tiu+37Mf1X1EeTm4fh/6jG6KN5bx6aDOkJQYs/d32pdhQJQyszBhb0HN2Ylr7mijf4FPMH99WCQgSXO0D/GpjJnWj0synkfzLVEyePNnDdSp+ST5V6G3WpdxcvYiJ49bC1CMRPbY5mUYt9wx6DswX9PBvD2L39V+Z/dt4k5n9O3pv2FreBQwZll/20CF7kOQI05Vz6PtV/nmm3imYesaR8AM58Z/hMQkYE1wT3ZZajUfLSsTgJvLiKN07t+Pt6POOSszjJOA/BLLm46uv6yve7m2+7ozoY/a81vOwf/XbBcJfH29+NwC/H+V8hkZ7CIwr6OaTWNH3KVSo+Ay+XpeFnMSBaCB/xCEP4r+rVUclMzLPZxZfTEu9Fv7BocRUZXx52LC92OzMrJt7Fn2+vC5qiY5ETcpUWsy81EKXgDKtCwLKVJ950ibyW341mrF9VQqqilk+IhY1px/HUScmwFMz2+VHigt7CoM3aAagm0/g914NUeeVVmgsHu4SyGiL+n0mzmc4q6RSf6CYARJwm4D5wjwMGixD1+rjjRlz7Le4r6Zh3veN0WbQ4+gw9VskZ+hhJnU7y7zQAQFjCfr5lRjRtQ+mJ+7Asi9fVILHtPxua74jWNYidKkhptJQ1PssHtK2yk6dgFa1m2L4Jld9vx1QKOHD4pXdVWl1x+K+ohzdck6iS4HJ3fTfVERbNSphBGZeEvTTSan5Qh0Zh1dXZdt5ccvDjqSdaFgg+mUG7cC8007UHGYcnNQCZaQFHlwLHy8pMPWYj2PV4Jdw7xO9sGhBb/xbTO5lXsXEA2bAfBprhzbHfc8NxUbfesxK+Knm7XyVQO7+b9H9KxH0hoj6094wzSzsXPUeOgx6HJ2mTUAKA8kYtqoNJejZq3rjAaX/Ukye4Xj4419xPQDcSfzUsYoSvSu4UkN07PUJWtathEc/WWz/jdKoyLMzMWFiQX9vRCwqjjuIHWpD0CbP/+DI+u24TwksIzONxaN93OVC46INwcwbgp6bhXFj1yoTrUi/eOvFxzBv/QksWH8CMeuOYMLS3eg6LgmVFIe5ONSdsBdLTxXdasiJ7YuHxdIjQyAfaIGPe0ei07P34PZHu2BuWg6y13yKh+QZDK6ERp37IqrdY6hU9XkMXHHczguFTYXxAAn4GAEzTiV2Q3ulb/xFjN+hWj/VYlzBoQ190XVwA7wzYwq2Xiz6N6ZeyW3JEzCQoOdh1+jnER4UBFNwJTToOhupVq3Ri0kj8GLVEKWP0xR2F57tGYM0H2o1mU8fxdv984OkWIaoRcbi9qF7sNpG1P/G7/M34C7Fw10durYGpqgEtP1LHa9uEGY6C7o54wQ+GRyPEMWMfr3sCrPIWIRExeH2fomoNyIFnX7ah5k7Ljkwx9v5QZkPYVGf/6BKSP7EP6bwmmjafSLijhaY1LM3YPRLVREik/6YyqH2C1GYtTnDTkI85K8ELu1fh0VzpmP6z6uQbrebOBvHd27Ehg0b8teNqThk9zxfIHQZ6xY0Q9tB4uQWgeWZWsG+giObB6Db1w3Q+YcZ2G4TUtmT8plxeP0yLF68DOsPe9KdxdkTtbVgIEEHsk/swvr4BGzac9rG+1jNdO6pXUiKT8L2I1lsMUm3gxGYmU8i+qMGeOSRBvjwpxM+UC9mZB7cgqTkbThkr2885yR2JMZjQ/pJl8f9q88nt75MIAMbJ3fCwxXyX/Yk3HTVFt9hm3WjIW8P5vVtjrrKUFp58SuLl8alF7Kc+QyFq9swe2JDxSGu3aRJGqfbHBza+Dm6ff0E3ps9C7usG+4eFzAbK6LuR0jIfejxh3uJc/ZE20owlKDbZo9HSIAESKAkCORh75xOqF3laXQbOwMj3qqDULHShNRG96X2htVkIOadyvkjIkLro398MUXJILM9mjNi8KXi4f443vt1TcEwzUykJfRCl8EN8f6cuUi3fqFxtzoyD+HAKbU1nouUb/6DsLDG+HqTap7Mw6mDhwrNZeHoVpw90T4ZCrp9LjxKAiQQSATy0jGrczN8GH1QsTDl7RqDZmWkpR6C+6NW2LHUZCC6k8zYZ0K550dhu6pTrjIzQBwMyWr29i/xrtJ//hQ+X7MV+/f/jpiYN/DWoMfRefaP2GNvBJurZSx03iWs+7Ixbq/TGl8v348cmHF8WmuUKdMSU2R2yZz9+P3rNqhze2MMSrTqay2Ujnzg7Ik2SAoOUNAdkeFxEiCBwCWQuwlfNy6IGPj8KOy0FuycBAyoH4qg4Gro8ONRN7qZjDDb499I+/NNTVAZ7axr9fH/fvgJx7Rd6p48DXl7ML/vq3igQjBMoTXQ7L8x2BTdBdXufBc/pfyCvi/chVBTMCo80AL9fpVpsouxcPZECywKugUFd0iABEhAJXAJS7vXyh9VU60LFl5Uj+dvc7cMRZMwE0Lrf4a1RTUoC19qnE/XTmLZbBlbXg9tR3yOv84cw5ED8zF6XH5EuDaDO2DuEWeBL4pflJzD8Zg1sAOerBaOitWro3y56qhRKRzVnuyAgbPicdgd8z5nT7RUBAXdgoI7JEACJKASMOPw1FYoK/3oYc9gRKrazyvf5yD5y4YIC66CdtP3u9E6V+9Rytvc1Rg/8nEloEz7H6JxSgnhYMb5lL7orJjhG+CjJevsdDd4mO+co0iY8j4eU5wKTSj36HuYnHDU7TDLnD3xen1Q0K+z4B4JkAAJWAjkrBuA+kqY4Cp4f4FmXNr5peh+fwjCnxyIdb7aOpee6MMT0VOJENcQkSu2XjdzX0nElLENFM/3tiP6YY2m6BY47uxkpuOPib3Q8qGKCC5bBy3bN0W1Ks+i/WsPoGxwRTzUqhcm/rHb9SGoSh44e6K2KijoWhrcJwESIAGVQEYM3rlTHOPC0GTY1oKhtHlIn9gCFUPuxQfzPQg2VOqzPZpxNikCbyot8ecxplDQj7+RvvKtgr71/+CLde7OJqmClLeH7Rj74m2KE+Ftj72N8WtPICPmbVSs8BbmnjuB+AmdUe82E4JMt+HlcTuvv1xokrC7y9kTC2GhoBfCwQ8kQAIkUEAgbwdGNQ2HMh79g4X5UxefWYrudUNRudUkpBfLc8uKaql7uWcj6dcX8wPKfP0xlpwv7P129fQcDBgiE7bUR7vJk7GnqEmhrIpn+9GME4v6oH3ED9h0Tr41Y993zVEm/EWM3Z0P8vzmWYhs3weLThTOi21amiOcPVEDA6CgF8LBDyRAAiSgEsjG7xH3Ko5x4c+Pxq68S0gc1BhlKzyHYRuLOe5cTVLdlvpsjzswd1J+QJnXJ4yz9eK/dgorf3pOEfzWX7XClN26holT/BASBzZAqIzhT3DHEy4fJGdPVB+o/C0FvTAPfiIBEiCBAgJmHJrSUnGMC76nOxYnj0KzimXx5MD4YvbzGg+oElCmoAXeIWa5MtmVdS4v7hiE95VJWx5H55hlOO9s3iPri4v8nI0VnzZAzZqPo4+bkeLkFpw9sTBoCnphHvxEAiRAAhYCOXF98Yg4xoU+jMZPVkLZBv2wxg9C+2ekfIpOSv/5E+i+fJP9UNu58Zj0bb5zXJsh72LecX2HsFkgu73D2ROt0VHQrYnwMwmQAAmoBE7NQvuC2O6msk+g3+rz6je+u/17NxbMaKKMP289qAHeX/CXfYvDtVNYOutJxdu9tUydOuN7bL9UjP7tEiDE2RMLQ6agF+bBTyRAAiRwnUBOIgY+HoogU3k8/UW8S3HGr19svD3zhd/x3fj/y+8bV1ro9dBm0H/Q9ccfrRzf/kZ63EfoPFgc49QIcvXRbkR3LDRSS52zJxZ6yCjohXCU9oerSNtxAjHJx11YTyH53D+lnWHenwT8mkB2yhg0vzMEt78wAhusosX5dcF9qnCcPVGtLgq6SsII22vZmDguDpa50iOs5gLXfo5ch0+2ejyWxAildpyHq5exdr0rLzfOzjmNTZl88XEMmd84ImA+swqfNSqPkLvfwLRd2khxjq7gcRIoXQIU9NLlb3V3M/bvPYM/tp12YT2Lbf4uVDnH8FZPJy812hccR/tRSei7y1j9flaVzo9GJHApFVPb10JImccQ+ZsHAWSMWDbmyW8JUND9tmr9oGBXc7Ap1ZWXG2fnnMOOLLbQ/eBp8GoRLsVPRGSvadiYA5hPJ+K7/1cX4SE18NqEFLtDuryaGSZOAm4SoKC7CY6XkQAJ+AuBHCRJkJPgO1G/eQs0qlkGppAaeGX4WpyhccdfKjkgykFBN2I1X/0bu3efwtw1B/Htsv0Y+ftBTF57HEt2XsD+S7pGdzBi6W3yZM7IQuyOM1i5XbuexaodZxG3OwNbjufgvCdhOG3uyAMBRUDigbcsC1NQEIKCTAiv1Qx9onfkh3oNKBAsrK8ToKAbqQbzsvHXyp14+Yu1CI6MRUiveNQakIDbo2ItjnKmqHg8s/i821MNGqm4ruYlM/0QPv42EeGRjvrTYxHcKwFPTtiFkRuz4AdxP1xFw/P0IGA+iaTo8Rg5ciymRK/CLqu45nrcgmmQQEkQoKCXBGUX7pF39jS+HJOA0MhYhH62Cb3jzmF/QYjjvKxMTJ+ehDARtMg4tFiVbaA5mHNwdFsC4uMTsO2o+zGZi0R04Qhe75n/YhMycCcWnr6CExk52Hv4PJbH70f3MYkoW8DnoSkHkcB+8yKR8gQSIAH/IkBBN0B9mjNO479D18IUEYsyX6Zi9lHbjjtzxjF0+DQWQVHJGLjb9vtSK4b5CKa2KoOgoDJoOeWw1140zBlH0EbxeI9FxSnHcNq6wNeuIHbJZlRVWvGxuHvSEaT7+ag+awT8TAIkENgEKOilXf9XL2HG5AQER6yBqc9GfLPXQWfwtcuYMDYOwX2341cPJ3rStcglJOg56btRL0pM7rF4dlmW/fmSr17C9xPiFZZBPdah60aOHda1rpkYCZCAoQlQ0Eu1eq5h/9qtqF5gKn7mt0w41uprOLD7JBZuz8I5I/nFlYig/4PDq1NQTjj1SERUqmMLRcbmHahV0EqvMu04lKmXS7WOeXMSIAESKBkCpSrol/avw6I50zH951VIz7JX4Gwc37kRGzZsyF83puKQ3fPsXesDxy6fQdSXBf3CX+zC8kue5zlzdyzm/zAF3/+8BnvshqrMQNpfv2DW9JmIXnvA/ixLxclGiQj6VSyZVWDF6L0Vsy84yWDmUbTrlc809Kt0rLU7QdRF7E/4FT9MmYwflm5zPDQp9zh2JCciMTEJWw5kOrkpvyIBEiCB0idQSoKegY2TO+HhglmMgoKCUbXFd9hm7VOVtwfz+jZH3XImBMmQElNZvDQu3b65tfRZFjMH/+Bg7BbcrrbOl17wUFwzsWlSBzxYXmUVgns6zcE+rQX/4lZMf/shlDPJ8JwQ1O210olFwMXilISg52Xiq2/yRTps+D5s1ZbJOpu5ZxA5IP9c03+34xerZ8p8ZCWGvf5AAQN5piqh2egU1eQ9uQAADCFJREFUu+xzEgagvkydaSqPNtOOes0/wLoI/EwCJEAC7hAoBUHPw945nVC7ytPoNnYGRrxVB6EiMCG10X2pvVZQBmLeqZw/RjS0PvrHOzZKFwtA3l78GNkSzZs393BtiYg5e4r/knH1IsZ+GweT9J332oxxJzyxo+fhQPS7qFO5IT4YPRNju9RHWVMQTGH/wTcpBf3I5oNY8OFDCDeFo3L1yggProi3frRxLSsWQuXkEhB087nDeE1pdcfi3h9PO38JyT2LPgVWD1PvVERrBD1333x88sTtuOflPpg4eyw6PxSqvCiGPzcSO2xeEsw4MKmFwjEo7GkM2cz++OI/HLyCBEigJAmUvKDnpWNW52b4MPqg0uLJ2zUGzcpIqzIE90etsPNnnYHoThVhCjKh3POjsN3mj9dNXLlbMez/wvJb/kpACWm1urOGocnQLXZbeM5ylnfyIF5WhmHFosyYg9jtiUd23j78/GEzvDNzt5IP85HpaHubCUGmMnh5/F7kIQepE1uhWmg1vDQkFicvbcX8b6fiz0OO+6Kd5b3QdyUg6BdTdqKmYslYi3ZxV5y3lK+cQrfP8lvowf12YMkVNbd52B/dFS++PQ3blK6Ii5j3jjxXQQh7Zji22eh1FhZ2qY7goCCE1I7AHzp0h6g54ZYESIAEvEGg5AXduhS5m/B143xhDX9+FHZaC3ZOAgbUD0VQcDV0+FFPs2cW9ib/hZUrV3q4/oWkvfYsC9YF1X7+ByfWbsVtBc5bjZd4am7Xpg0gLx1jXwiHdGXU+HAxTiUNwXMVK+CpvitwUgcNL3Q3rwu6GRsXr0eYTL4StQFDDjovQP7wtgLz/Dd7sd76eVIzn5eGMc2EkQkV35pr6zyXk4SBDaQFb8Jt7WfjpHodtyRAAiRgUAKlL+i4hKXdayktoeBqXbDQypErd8tQNAkzIbT+Z1jrN62kq1g2Z51leFXENuciVfxnJwfxn9dDqLQ+n3gTHRqUR803vscOjfnZ5TTz9mNev4548803Haxt8fTdIYqF5e7GbR2cI9d2RL+YfcXvmriWg2kT8rsmgj/fieWWFrf9EmTvSMMDPfKHt1Wedhzn7Z8GnIvG25XFMhSGZ4Zvs7GwmA9NQcuy8n04nh2RWvx8O7ovj5MACZCAlwgYQNDNODy1VUFf5TMYkaq1feYg+cuGCAuugnbT9zs3tXoJkFeSvXoRo0blz3tu6pmCqef0nw0sc8H7qBqcH5u6bP1eWH7CzZeGUu6awJVT6P65tLhjUX7CERx16mpgxuYlG/Jb8xJR76/LDp+Z7JW9UCdEfDcewqdrbP0yLi7+EHcJv5C66LXS9nuvPBdMlARIgAQ8IGAAQQdy1hV4EwdXwfsLNOPSzi9F9/tDEP7kQKzzm9Y5gNzTFk/s4P478XsRrU536jdvzzi8FC4e2uXw+kxPDMbnkbriF8TExDhYZyCykXSZhKFRxHQH58i1v+CPbeccCqyjMuYe2IvGBQFlGi3OtGlJF7ouLxODhxZ4uPdKwcSTjtQ/FylDnkZYUBCCa3TBQpsekxysG/C4YuEwVeqAuWcK3YUfSIAESMCQBAwh6MiIwTt35ps/mwzbWvCnnYf0iS1QMeRefDD/eLGFoEja5sNYOiIKERERHq5RGPHboeLlL+c43u5zvZ93g6N+3iIL4fiES5uHo6ky3C8U9foneG8yF6/2of+D47FbUF5xiEvAxynOPQfPpexEnQJze41px3HckZ7L7FqtyimOlhVenwGbSLu5mzHk6QK/jmZjkOaF+nFcc/yGBEiABNwjYAxBz9uBUU3znbiqfrAwf9rCM0vRvW4oKreahHRv/KGWpilZK+gj9iNV5/KZT/6B3g0q4LbbyiuiVbblZBThS+be0yNXeVXQr/samHptwTRnXRO5mRg2Uh0GuBHf7HfSxZCxAO9XC87vPx+RatPqz1jREw+KOT4oFA/3jfXey5D71HklCZAACdgQMIagIxu/R9yrOMaFPz8au/IuIXFQY5St8ByGbfRS/6X5NJJ/mYrJkyd7uE7FL8mnitdCzz2L3l/kt9BDh+xBst1oZvl1lb3vIN4ek4JBrqp+zk5Ma18T5Rt8ivnj2yoBVIKrfYBfbczKNs+Cewe8Keh5FzBk2HVLhkOPdeQheekmVCoY2tZk0Xk4K25O/Gd4TALGBNdEt6VWfTlZiRjcRF6EpLvidrwd7dCtzj1evIoESIAEvETAIIJuxqEpLRXHuOB7umNx8ig0q1gWTw6Mh6ZH3UsISiPZK5gzRWZXWwPTf7dhrqNC5l3EhPHxCI7agKGujBk3n8SKvk+hQsVn8PW6LOQkDkQDEa6QB/Hf1eqLkRmZ5zOL9wLiDJEXBV0CyrQuCChz16xT+ZYbm7xcxa6E7XhQxvRHxuL+qUew08kLklx+ama7/EhxYU9h8AaNE6b5BH7v1RB1XmmFxuLhLoF5tqjfZ+J8hs6mFJuy8AAJkAAJuE/AIIIO5MT1xSMiPqEPo/GTlVC2QT+syXC/YMa+8h+cWr89fxKRyHi0WXPZdljUtSv469eNSqtTHOccDtc6vxIjuvbB9MQdWPbli0rwmJbfbc0P0JO1CF1qiGk5FPU+i4e0RbNTJ6BV7aYYvsmdMWx2qHpR0E8npeZPhxoZh5arbeeAz7uQiR/nbcbdUSLma9Fg1jEXhuaZcXBSC5SRFnhwLXy8pKAtbz6OVYNfwr1P9MKiBb3xbzG5l3kVEw+YAfNprB3aHPc9NxQbdcJmhyQPkQAJkIBHBAwj6Dg1C+0LYrubyj6Bfqv93NR59TJ+npGEMpFrENxnPbr+eQrrT2Tj8OmLSN56BAMnJVkCz5RzMlwre1VvPKD094qJOBwPf/wrrjfmT+KnjlXyx/hXaoiOvT5By7qV8Ogni20dwdx9jLwl6LlZGDc234oRFJmA15ccQ0zycfyccAQTl+9Bj+834cE+sflzyPffhJ5rM3HGkROcVdlyYvviYXl5DDKh7AMt8HHvSHR69h7c/mgXzE3LQfaaT/GQMA2uhEad+yKq3WOoVPV5DFzhBedMq7zxIwmQAAm4S8A4gp6TiIGPhyoTYTz9RbzTPlB3C2u46/Ky8cfy7Xi2fxyClahxEhAlfzVFxqHywPV4ecpOfL3pkm0LXilMHnaNfh7hQUEwBVdCg66zkWrVJXwxaQRerBqi9Ambwu7Csz1jkKZnK9MLgm7OOIFPBscjxIqJjEU3RcaibJ941P5qA1pOS8OI+LPYq/YmuFrB5kNY1Oc/qBIiIyuCYAqviabdJyLuaIFJPXsDRr9UFSEyx4CpHGq/EIVZm/3WXOQqNZ5HAiRgcAKGEfTslDFofmcIbn9hBDZYRYszOEPPs3ctD0eOZiJh1znE772A7cezcfyS2aV+7uwTu7A+PgGb9py28dZWM5Z7aheS4pOw/UiWS2mq17m0NZ9E9EcN8MgjDfDhTyf0T9+lTLhzkhmZB7cgKXkbDtnrG885iR2J8diQftLO/ALu3I/XkAAJkIB3CRhC0M1nVuGzRuURcvcbmLZLdULybsGZOgmQAAmQAAn4E4HSF/RLqZjavhZCyjyGyN/YR+lPDxfLQgIkQAIkUHIESlzQL8VPRGSvaYq3sPl0Ir77f3URHlIDr01IUbywS67ovBMJkAAJkAAJ+A+BEhb0HCQNbIDQ4DtRv3kLNKpZBqaQGnhl+FqccRLYy39wsyQkQAIkQAIk4B0CJSvoEkO7Zdn8KFxBJoTXaoY+0TscBAzxToGZKgmQAAmQAAn4I4ESFvSTSIoej5Ejx2JK9CrsOs9muT8+VCwTCZAACZBAyRMoWUEv+fLxjiRAAiRAAiQQEAQo6AFRzSwkCZAACZCAvxOgoPt7DbN8JEACJEACAUGAgh4Q1cxCkgAJkAAJ+DsBCrq/1zDLRwIkQAIkEBAEKOgBUc0sJAmQAAmQgL8ToKD7ew2zfCRAAiRAAgFBgIIeENXMQpIACZAACfg7AQq6v9cwy0cCJEACJBAQBCjoAVHNLCQJkAAJkIC/E6Cg+3sNs3wkQAIkQAIBQYCCHhDVzEKSAAmQAAn4OwEKur/XMMtHAiRAAiQQEAQo6AFRzSwkCZAACZCAvxOgoPt7DbN8JEACJEACAUGAgh4Q1cxCkgAJkAAJ+DuB/w9RVNhnMSQIqwAAAABJRU5ErkJggg==;" vertex="1" parent="1">
          <mxGeometry x="610" y="120" width="500" height="249" as="geometry" />
        </mxCell>
        <mxCell id="URKf0z_btjTz6VOf-sqR-5" value="" style="rounded=1;whiteSpace=wrap;html=1;fillColor=none;" vertex="1" parent="1">
          <mxGeometry x="340" y="120" width="260" height="300" as="geometry" />
        </mxCell>
        <mxCell id="URKf0z_btjTz6VOf-sqR-6" value="&lt;b&gt;&lt;font style=&quot;font-size: 21px;&quot;&gt;连续状态空间&lt;/font&gt;&lt;/b&gt;" style="text;html=1;align=center;verticalAlign=middle;resizable=0;points=[];autosize=1;strokeColor=none;fillColor=none;" vertex="1" parent="1">
          <mxGeometry x="120" y="369" width="150" height="40" as="geometry" />
        </mxCell>
        <mxCell id="URKf0z_btjTz6VOf-sqR-7" value="（左图）由矩阵 A、B、C、D 参数化的状态空间模型（SSM）通过潜在状态 x(t) 将输入信号 u(t) 映射到输出 y(t)。 &lt;br&gt;（中图）关于连续时间记忆的最近理论推导出特殊的 A 矩阵，使得SSMs能够在数学和经验上捕捉长程相关性（LRD）。 &lt;br&gt;（右图）SSMs可以通过递归（左侧）或卷积（右侧）进行计算。&lt;br&gt;然而，实现这些概念视图需要使用不同的参数表示（红色、蓝色、绿色），其计算代价非常高。S4引入了一种新颖的参数化方法，可以高效地在这些表示之间切换，使其能够处理各种任务，在训练和推理时都非常高效，并且在处理长序列时表现出色。" style="text;html=1;align=center;verticalAlign=middle;resizable=0;points=[];autosize=1;strokeColor=none;fillColor=none;" vertex="1" parent="1">
          <mxGeometry x="-480" y="540" width="1350" height="70" as="geometry" />
        </mxCell>
        <mxCell id="URKf0z_btjTz6VOf-sqR-8" value="&lt;b&gt;&lt;font style=&quot;font-size: 21px;&quot;&gt;长距离依赖&lt;/font&gt;&lt;/b&gt;" style="text;html=1;align=center;verticalAlign=middle;resizable=0;points=[];autosize=1;strokeColor=none;fillColor=none;" vertex="1" parent="1">
          <mxGeometry x="408" y="369" width="130" height="40" as="geometry" />
        </mxCell>
        <mxCell id="URKf0z_btjTz6VOf-sqR-9" value="&lt;span style=&quot;font-size: 21px;&quot;&gt;&lt;b&gt;快速离散表示&lt;/b&gt;&lt;/span&gt;" style="text;html=1;align=center;verticalAlign=middle;resizable=0;points=[];autosize=1;strokeColor=none;fillColor=none;" vertex="1" parent="1">
          <mxGeometry x="795" y="379" width="150" height="40" as="geometry" />
        </mxCell>
        <mxCell id="URKf0z_btjTz6VOf-sqR-10" value="" style="rounded=1;whiteSpace=wrap;html=1;fillColor=none;" vertex="1" parent="1">
          <mxGeometry x="70" y="120" width="260" height="300" as="geometry" />
        </mxCell>
        <mxCell id="URKf0z_btjTz6VOf-sqR-11" value="" style="rounded=1;whiteSpace=wrap;html=1;fillColor=none;" vertex="1" parent="1">
          <mxGeometry x="610" y="120" width="494" height="307" as="geometry" />
        </mxCell>
      </root>
    </mxGraphModel>
  </diagram>
</mxfile>
